<?xml version="1.0" encoding="utf-8" standalone="no"?>
<!DOCTYPE svg PUBLIC "-//W3C//DTD SVG 1.1//EN"
  "http://www.w3.org/Graphics/SVG/1.1/DTD/svg11.dtd">
<svg xmlns:xlink="http://www.w3.org/1999/xlink" width="344.307844pt" height="304.66236pt" viewBox="0 0 344.307844 304.66236" xmlns="http://www.w3.org/2000/svg" version="1.1">
 <metadata>
  <rdf:RDF xmlns:dc="http://purl.org/dc/elements/1.1/" xmlns:cc="http://creativecommons.org/ns#" xmlns:rdf="http://www.w3.org/1999/02/22-rdf-syntax-ns#">
   <cc:Work>
    <dc:type rdf:resource="http://purl.org/dc/dcmitype/StillImage"/>
    <dc:date>2026-05-21T15:22:49.146425</dc:date>
    <dc:format>image/svg+xml</dc:format>
    <dc:creator>
     <cc:Agent>
      <dc:title>Matplotlib v3.10.8, https://matplotlib.org/</dc:title>
     </cc:Agent>
    </dc:creator>
   </cc:Work>
  </rdf:RDF>
 </metadata>
 <defs>
  <style type="text/css">*{stroke-linejoin: round; stroke-linecap: butt}</style>
 </defs>
 <g id="figure_1">
  <g id="patch_1">
   <path d="M 0 304.66236 
L 344.307844 304.66236 
L 344.307844 0 
L 0 0 
z
" style="fill: #ffffff"/>
  </g>
  <g id="axes_1">
   <g id="patch_2">
    <path d="M 291.498469 170.959256 
C 291.498469 154.942565 288.34353 139.081616 282.214208 124.284123 
C 276.084885 109.48663 267.100379 96.040367 255.774869 84.714856 
C 244.449358 73.389346 231.003095 64.40484 216.205602 58.275517 
C 201.408109 52.146195 185.54716 48.991256 169.530469 48.991256 
C 153.513778 48.991256 137.652829 52.146195 122.855336 58.275517 
C 108.057843 64.40484 94.61158 73.389346 83.286069 84.714856 
C 71.960558 96.040367 62.976052 109.48663 56.84673 124.284123 
C 50.717408 139.081616 47.562469 154.942565 47.562469 170.959256 
C 47.562469 186.975947 50.717408 202.836896 56.84673 217.634389 
C 62.976052 232.431882 71.960558 245.878145 83.286069 257.203656 
C 94.61158 268.529167 108.057843 277.513673 122.855336 283.642995 
C 137.652829 289.772317 153.513778 292.927256 169.530469 292.927256 
C 185.54716 292.927256 201.408109 289.772317 216.205602 283.642995 
C 231.003095 277.513673 244.449358 268.529167 255.774869 257.203656 
C 267.100379 245.878145 276.084885 232.431882 282.214208 217.634389 
C 288.34353 202.836896 291.498469 186.975947 291.498469 170.959256 
M 169.530469 170.959256 
C 169.530469 170.959256 169.530469 170.959256 169.530469 170.959256 
C 169.530469 170.959256 169.530469 170.959256 169.530469 170.959256 
C 169.530469 170.959256 169.530469 170.959256 169.530469 170.959256 
C 169.530469 170.959256 169.530469 170.959256 169.530469 170.959256 
C 169.530469 170.959256 169.530469 170.959256 169.530469 170.959256 
C 169.530469 170.959256 169.530469 170.959256 169.530469 170.959256 
C 169.530469 170.959256 169.530469 170.959256 169.530469 170.959256 
C 169.530469 170.959256 169.530469 170.959256 169.530469 170.959256 
C 169.530469 170.959256 169.530469 170.959256 169.530469 170.959256 
C 169.530469 170.959256 169.530469 170.959256 169.530469 170.959256 
C 169.530469 170.959256 169.530469 170.959256 169.530469 170.959256 
C 169.530469 170.959256 169.530469 170.959256 169.530469 170.959256 
C 169.530469 170.959256 169.530469 170.959256 169.530469 170.959256 
C 169.530469 170.959256 169.530469 170.959256 169.530469 170.959256 
C 169.530469 170.959256 169.530469 170.959256 169.530469 170.959256 
C 169.530469 170.959256 169.530469 170.959256 169.530469 170.959256 
z
" style="fill: #ffffff"/>
   </g>
   <g id="patch_3">
    <path d="M 289.815905 170.959256 
L 111.893697 71.12944 
L 126.213392 245.986634 
z
" clip-path="url(#pa6ebf7fcf9)" style="fill: #0000ff; opacity: 0.1"/>
   </g>
   <g id="matplotlib.axis_1">
    <g id="xtick_1">
     <g id="line2d_1">
      <path d="M 169.530469 170.959256 
L 291.498469 170.959256 
" clip-path="url(#pa6ebf7fcf9)" style="fill: none; stroke: #b0b0b0; stroke-width: 0.8; stroke-linecap: square"/>
     </g>
     <g id="text_1">
      <!-- Precisión -->
      <g transform="translate(280.689094 174.270506) scale(0.12 -0.12)">
       <defs>
        <path id="DejaVuSerif-50" d="M 1581 2375 
L 2406 2375 
Q 2872 2375 3115 2626 
Q 3359 2878 3359 3353 
Q 3359 3831 3115 4081 
Q 2872 4331 2406 4331 
L 1581 4331 
L 1581 2375 
z
M 353 0 
L 353 331 
L 947 331 
L 947 4331 
L 353 4331 
L 353 4666 
L 2559 4666 
Q 3259 4666 3668 4311 
Q 4078 3956 4078 3353 
Q 4078 2753 3668 2397 
Q 3259 2041 2559 2041 
L 1581 2041 
L 1581 331 
L 2303 331 
L 2303 0 
L 353 0 
z
" transform="scale(0.015625)"/>
        <path id="DejaVuSerif-72" d="M 3059 3328 
L 3059 2497 
L 2728 2497 
Q 2713 2744 2591 2866 
Q 2469 2988 2234 2988 
Q 1809 2988 1582 2694 
Q 1356 2400 1356 1850 
L 1356 331 
L 2022 331 
L 2022 0 
L 263 0 
L 263 331 
L 781 331 
L 781 2994 
L 231 2994 
L 231 3322 
L 1356 3322 
L 1356 2731 
Q 1525 3078 1790 3245 
Q 2056 3413 2438 3413 
Q 2578 3413 2733 3391 
Q 2888 3369 3059 3328 
z
" transform="scale(0.015625)"/>
        <path id="DejaVuSerif-65" d="M 3469 1600 
L 991 1600 
L 991 1575 
Q 991 903 1244 561 
Q 1497 219 1991 219 
Q 2369 219 2611 417 
Q 2853 616 2950 1006 
L 3413 1006 
Q 3275 459 2904 184 
Q 2534 -91 1931 -91 
Q 1203 -91 761 389 
Q 319 869 319 1663 
Q 319 2450 753 2931 
Q 1188 3413 1894 3413 
Q 2647 3413 3050 2948 
Q 3453 2484 3469 1600 
z
M 2791 1931 
Q 2772 2513 2545 2808 
Q 2319 3103 1894 3103 
Q 1497 3103 1269 2806 
Q 1041 2509 991 1931 
L 2791 1931 
z
" transform="scale(0.015625)"/>
        <path id="DejaVuSerif-63" d="M 3291 997 
Q 3169 466 2822 187 
Q 2475 -91 1925 -91 
Q 1200 -91 759 389 
Q 319 869 319 1663 
Q 319 2459 759 2936 
Q 1200 3413 1925 3413 
Q 2241 3413 2553 3339 
Q 2866 3266 3181 3116 
L 3181 2266 
L 2847 2266 
Q 2781 2703 2561 2903 
Q 2341 3103 1931 3103 
Q 1466 3103 1228 2742 
Q 991 2381 991 1663 
Q 991 944 1227 581 
Q 1463 219 1931 219 
Q 2303 219 2525 412 
Q 2747 606 2828 997 
L 3291 997 
z
" transform="scale(0.015625)"/>
        <path id="DejaVuSerif-69" d="M 622 4353 
Q 622 4497 726 4603 
Q 831 4709 978 4709 
Q 1122 4709 1226 4603 
Q 1331 4497 1331 4353 
Q 1331 4206 1228 4103 
Q 1125 4000 978 4000 
Q 831 4000 726 4103 
Q 622 4206 622 4353 
z
M 1356 331 
L 1900 331 
L 1900 0 
L 231 0 
L 231 331 
L 781 331 
L 781 2988 
L 231 2988 
L 231 3322 
L 1356 3322 
L 1356 331 
z
" transform="scale(0.015625)"/>
        <path id="DejaVuSerif-73" d="M 359 184 
L 359 959 
L 691 959 
Q 703 588 923 403 
Q 1144 219 1575 219 
Q 1963 219 2166 364 
Q 2369 509 2369 788 
Q 2369 1006 2220 1140 
Q 2072 1275 1594 1428 
L 1178 1569 
Q 750 1706 558 1912 
Q 366 2119 366 2438 
Q 366 2894 700 3153 
Q 1034 3413 1625 3413 
Q 1888 3413 2178 3344 
Q 2469 3275 2778 3144 
L 2778 2419 
L 2447 2419 
Q 2434 2741 2221 2922 
Q 2009 3103 1644 3103 
Q 1281 3103 1095 2975 
Q 909 2847 909 2591 
Q 909 2381 1050 2254 
Q 1191 2128 1613 1997 
L 2069 1856 
Q 2541 1709 2748 1489 
Q 2956 1269 2956 922 
Q 2956 450 2595 179 
Q 2234 -91 1600 -91 
Q 1278 -91 972 -22 
Q 666 47 359 184 
z
" transform="scale(0.015625)"/>
        <path id="DejaVuSerif-f3" d="M 1925 219 
Q 2388 219 2623 584 
Q 2859 950 2859 1663 
Q 2859 2375 2623 2739 
Q 2388 3103 1925 3103 
Q 1463 3103 1227 2739 
Q 991 2375 991 1663 
Q 991 950 1228 584 
Q 1466 219 1925 219 
z
M 1925 -91 
Q 1200 -91 759 389 
Q 319 869 319 1663 
Q 319 2456 758 2934 
Q 1197 3413 1925 3413 
Q 2653 3413 3092 2934 
Q 3531 2456 3531 1663 
Q 3531 869 3092 389 
Q 2653 -91 1925 -91 
z
M 2362 5119 
L 2984 5119 
L 1922 3944 
L 1556 3944 
L 2362 5119 
z
" transform="scale(0.015625)"/>
        <path id="DejaVuSerif-6e" d="M 263 0 
L 263 331 
L 781 331 
L 781 2988 
L 231 2988 
L 231 3322 
L 1356 3322 
L 1356 2731 
Q 1516 3069 1770 3241 
Q 2025 3413 2363 3413 
Q 2913 3413 3172 3097 
Q 3431 2781 3431 2113 
L 3431 331 
L 3944 331 
L 3944 0 
L 2356 0 
L 2356 331 
L 2853 331 
L 2853 1931 
Q 2853 2541 2703 2767 
Q 2553 2994 2175 2994 
Q 1775 2994 1565 2701 
Q 1356 2409 1356 1850 
L 1356 331 
L 1856 331 
L 1856 0 
L 263 0 
z
" transform="scale(0.015625)"/>
       </defs>
       <use xlink:href="#DejaVuSerif-50"/>
       <use xlink:href="#DejaVuSerif-72" transform="translate(67.285156 0)"/>
       <use xlink:href="#DejaVuSerif-65" transform="translate(115.087891 0)"/>
       <use xlink:href="#DejaVuSerif-63" transform="translate(174.267578 0)"/>
       <use xlink:href="#DejaVuSerif-69" transform="translate(230.273438 0)"/>
       <use xlink:href="#DejaVuSerif-73" transform="translate(262.255859 0)"/>
       <use xlink:href="#DejaVuSerif-69" transform="translate(313.574219 0)"/>
       <use xlink:href="#DejaVuSerif-f3" transform="translate(345.556641 0)"/>
       <use xlink:href="#DejaVuSerif-6e" transform="translate(405.761719 0)"/>
      </g>
     </g>
    </g>
    <g id="xtick_2">
     <g id="line2d_2">
      <path d="M 169.530469 170.959256 
L 108.546469 65.33187 
" clip-path="url(#pa6ebf7fcf9)" style="fill: none; stroke: #b0b0b0; stroke-width: 0.8; stroke-linecap: square"/>
     </g>
     <g id="text_2">
      <!-- Recall -->
      <g transform="translate(81.001781 53.574278) scale(0.12 -0.12)">
       <defs>
        <path id="DejaVuSerif-52" d="M 3066 2316 
Q 3284 2256 3442 2114 
Q 3600 1972 3725 1716 
L 4403 331 
L 4972 331 
L 4972 0 
L 3872 0 
L 3144 1484 
Q 2934 1916 2759 2042 
Q 2584 2169 2278 2169 
L 1581 2169 
L 1581 331 
L 2241 331 
L 2241 0 
L 353 0 
L 353 331 
L 947 331 
L 947 4331 
L 353 4331 
L 353 4666 
L 2719 4666 
Q 3400 4666 3770 4341 
Q 4141 4016 4141 3419 
Q 4141 2938 3870 2661 
Q 3600 2384 3066 2316 
z
M 1581 2503 
L 2503 2503 
Q 2975 2503 3200 2726 
Q 3425 2950 3425 3419 
Q 3425 3888 3200 4109 
Q 2975 4331 2503 4331 
L 1581 4331 
L 1581 2503 
z
" transform="scale(0.015625)"/>
        <path id="DejaVuSerif-61" d="M 2547 1044 
L 2547 1747 
L 1806 1747 
Q 1378 1747 1168 1562 
Q 959 1378 959 997 
Q 959 650 1171 447 
Q 1384 244 1747 244 
Q 2106 244 2326 466 
Q 2547 688 2547 1044 
z
M 3122 2075 
L 3122 331 
L 3634 331 
L 3634 0 
L 2547 0 
L 2547 359 
Q 2356 128 2106 18 
Q 1856 -91 1522 -91 
Q 969 -91 644 203 
Q 319 497 319 997 
Q 319 1513 691 1797 
Q 1063 2081 1741 2081 
L 2547 2081 
L 2547 2309 
Q 2547 2688 2317 2895 
Q 2088 3103 1672 3103 
Q 1328 3103 1125 2947 
Q 922 2791 872 2484 
L 575 2484 
L 575 3156 
Q 875 3284 1158 3348 
Q 1441 3413 1709 3413 
Q 2400 3413 2761 3070 
Q 3122 2728 3122 2075 
z
" transform="scale(0.015625)"/>
        <path id="DejaVuSerif-6c" d="M 1313 331 
L 1856 331 
L 1856 0 
L 184 0 
L 184 331 
L 738 331 
L 738 4531 
L 184 4531 
L 184 4863 
L 1313 4863 
L 1313 331 
z
" transform="scale(0.015625)"/>
       </defs>
       <use xlink:href="#DejaVuSerif-52"/>
       <use xlink:href="#DejaVuSerif-65" transform="translate(75.292969 0)"/>
       <use xlink:href="#DejaVuSerif-63" transform="translate(134.472656 0)"/>
       <use xlink:href="#DejaVuSerif-61" transform="translate(190.478516 0)"/>
       <use xlink:href="#DejaVuSerif-6c" transform="translate(250.097656 0)"/>
       <use xlink:href="#DejaVuSerif-6c" transform="translate(282.080078 0)"/>
      </g>
     </g>
    </g>
    <g id="xtick_3">
     <g id="line2d_3">
      <path d="M 169.530469 170.959256 
L 108.546469 276.586643 
" clip-path="url(#pa6ebf7fcf9)" style="fill: none; stroke: #b0b0b0; stroke-width: 0.8; stroke-linecap: square"/>
     </g>
     <g id="text_3">
      <!-- mAP50 -->
      <g transform="translate(78.151781 294.966735) scale(0.12 -0.12)">
       <defs>
        <path id="DejaVuSerif-6d" d="M 3316 2675 
Q 3481 3041 3739 3227 
Q 3997 3413 4341 3413 
Q 4863 3413 5119 3089 
Q 5375 2766 5375 2113 
L 5375 331 
L 5894 331 
L 5894 0 
L 4300 0 
L 4300 331 
L 4800 331 
L 4800 2047 
Q 4800 2556 4650 2772 
Q 4500 2988 4153 2988 
Q 3769 2988 3567 2697 
Q 3366 2406 3366 1850 
L 3366 331 
L 3866 331 
L 3866 0 
L 2291 0 
L 2291 331 
L 2791 331 
L 2791 2069 
Q 2791 2566 2641 2777 
Q 2491 2988 2144 2988 
Q 1759 2988 1557 2697 
Q 1356 2406 1356 1850 
L 1356 331 
L 1856 331 
L 1856 0 
L 263 0 
L 263 331 
L 781 331 
L 781 2994 
L 231 2994 
L 231 3322 
L 1356 3322 
L 1356 2731 
Q 1516 3063 1762 3238 
Q 2009 3413 2322 3413 
Q 2709 3413 2968 3220 
Q 3228 3028 3316 2675 
z
" transform="scale(0.015625)"/>
        <path id="DejaVuSerif-41" d="M 1281 1691 
L 2994 1691 
L 2138 3909 
L 1281 1691 
z
M -38 0 
L -38 331 
L 372 331 
L 2034 4666 
L 2559 4666 
L 4225 331 
L 4684 331 
L 4684 0 
L 2988 0 
L 2988 331 
L 3506 331 
L 3116 1356 
L 1153 1356 
L 763 331 
L 1275 331 
L 1275 0 
L -38 0 
z
" transform="scale(0.015625)"/>
        <path id="DejaVuSerif-35" d="M 3219 4666 
L 3219 4153 
L 1081 4153 
L 1081 2816 
Q 1244 2928 1461 2984 
Q 1678 3041 1947 3041 
Q 2703 3041 3140 2622 
Q 3578 2203 3578 1478 
Q 3578 738 3136 323 
Q 2694 -91 1894 -91 
Q 1572 -91 1234 -12 
Q 897 66 544 225 
L 544 1131 
L 897 1131 
Q 925 688 1179 453 
Q 1434 219 1894 219 
Q 2388 219 2653 544 
Q 2919 869 2919 1478 
Q 2919 2084 2655 2407 
Q 2391 2731 1894 2731 
Q 1613 2731 1398 2631 
Q 1184 2531 1019 2322 
L 750 2322 
L 750 4666 
L 3219 4666 
z
" transform="scale(0.015625)"/>
        <path id="DejaVuSerif-30" d="M 2034 219 
Q 2513 219 2750 744 
Q 2988 1269 2988 2328 
Q 2988 3391 2750 3916 
Q 2513 4441 2034 4441 
Q 1556 4441 1318 3916 
Q 1081 3391 1081 2328 
Q 1081 1269 1318 744 
Q 1556 219 2034 219 
z
M 2034 -91 
Q 1275 -91 848 546 
Q 422 1184 422 2328 
Q 422 3475 848 4112 
Q 1275 4750 2034 4750 
Q 2797 4750 3222 4112 
Q 3647 3475 3647 2328 
Q 3647 1184 3222 546 
Q 2797 -91 2034 -91 
z
" transform="scale(0.015625)"/>
       </defs>
       <use xlink:href="#DejaVuSerif-6d"/>
       <use xlink:href="#DejaVuSerif-41" transform="translate(94.824219 0)"/>
       <use xlink:href="#DejaVuSerif-50" transform="translate(167.041016 0)"/>
       <use xlink:href="#DejaVuSerif-35" transform="translate(234.326172 0)"/>
       <use xlink:href="#DejaVuSerif-30" transform="translate(297.949219 0)"/>
      </g>
     </g>
    </g>
   </g>
   <g id="matplotlib.axis_2">
    <g id="ytick_1">
     <g id="line2d_4">
      <path d="M 187.430087 170.959256 
C 187.430087 168.6087 186.967079 166.281 186.06756 164.109369 
C 185.168041 161.937738 183.849505 159.964409 182.18741 158.302315 
C 180.525316 156.64022 178.551987 155.321684 176.380356 154.422165 
C 174.208725 153.522646 171.881025 153.059638 169.530469 153.059638 
C 167.179912 153.059638 164.852212 153.522646 162.680581 154.422165 
C 160.50895 155.321684 158.535622 156.64022 156.873527 158.302315 
C 155.211433 159.964409 153.892897 161.937738 152.993378 164.109369 
C 152.093859 166.281 151.63085 168.6087 151.63085 170.959256 
C 151.63085 173.309813 152.093859 175.637513 152.993378 177.809144 
C 153.892897 179.980775 155.211433 181.954103 156.873527 183.616198 
C 158.535622 185.278292 160.50895 186.596828 162.680581 187.496347 
C 164.852212 188.395866 167.179912 188.858875 169.530469 188.858875 
C 171.881025 188.858875 174.208725 188.395866 176.380356 187.496347 
C 178.551987 186.596828 180.525316 185.278292 182.18741 183.616198 
C 183.849505 181.954103 185.168041 179.980775 186.06756 177.809144 
C 186.967079 175.637513 187.430087 173.309813 187.430087 170.959256 
" clip-path="url(#pa6ebf7fcf9)" style="fill: none; stroke: #b0b0b0; stroke-width: 0.8; stroke-linecap: square"/>
     </g>
     <g id="text_4">
      <!-- 0.05 -->
      <g transform="translate(186.06756 161.613744) scale(0.12 -0.12)">
       <defs>
        <path id="DejaVuSerif-2e" d="M 603 325 
Q 603 500 722 622 
Q 841 744 1019 744 
Q 1191 744 1312 622 
Q 1434 500 1434 325 
Q 1434 153 1312 31 
Q 1191 -91 1019 -91 
Q 841 -91 722 29 
Q 603 150 603 325 
z
" transform="scale(0.015625)"/>
       </defs>
       <use xlink:href="#DejaVuSerif-30"/>
       <use xlink:href="#DejaVuSerif-2e" transform="translate(63.623047 0)"/>
       <use xlink:href="#DejaVuSerif-30" transform="translate(95.410156 0)"/>
       <use xlink:href="#DejaVuSerif-35" transform="translate(159.033203 0)"/>
      </g>
     </g>
    </g>
    <g id="ytick_2">
     <g id="line2d_5">
      <path d="M 205.329706 170.959256 
C 205.329706 166.258144 204.403689 161.602743 202.604651 157.259481 
C 200.805613 152.91622 198.168541 148.969562 194.844352 145.645373 
C 191.520163 142.321184 187.573505 139.684112 183.230244 137.885074 
C 178.886982 136.086036 174.231581 135.160019 169.530469 135.160019 
C 164.829356 135.160019 160.173956 136.086036 155.830694 137.885074 
C 151.487432 139.684112 147.540774 142.321184 144.216586 145.645373 
C 140.892397 148.969562 138.255324 152.91622 136.456287 157.259481 
C 134.657249 161.602743 133.731232 166.258144 133.731232 170.959256 
C 133.731232 175.660369 134.657249 180.315769 136.456287 184.659031 
C 138.255324 189.002293 140.892397 192.948951 144.216586 196.273139 
C 147.540774 199.597328 151.487432 202.234401 155.830694 204.033438 
C 160.173956 205.832476 164.829356 206.758493 169.530469 206.758493 
C 174.231581 206.758493 178.886982 205.832476 183.230244 204.033438 
C 187.573505 202.234401 191.520163 199.597328 194.844352 196.273139 
C 198.168541 192.948951 200.805613 189.002293 202.604651 184.659031 
C 204.403689 180.315769 205.329706 175.660369 205.329706 170.959256 
" clip-path="url(#pa6ebf7fcf9)" style="fill: none; stroke: #b0b0b0; stroke-width: 0.8; stroke-linecap: square"/>
     </g>
     <g id="text_5">
      <!-- 0.10 -->
      <g transform="translate(202.604651 154.763856) scale(0.12 -0.12)">
       <defs>
        <path id="DejaVuSerif-31" d="M 909 0 
L 909 331 
L 1722 331 
L 1722 4213 
L 781 3603 
L 781 4013 
L 1919 4750 
L 2350 4750 
L 2350 331 
L 3163 331 
L 3163 0 
L 909 0 
z
" transform="scale(0.015625)"/>
       </defs>
       <use xlink:href="#DejaVuSerif-30"/>
       <use xlink:href="#DejaVuSerif-2e" transform="translate(63.623047 0)"/>
       <use xlink:href="#DejaVuSerif-31" transform="translate(95.410156 0)"/>
       <use xlink:href="#DejaVuSerif-30" transform="translate(159.033203 0)"/>
      </g>
     </g>
    </g>
    <g id="ytick_3">
     <g id="line2d_6">
      <path d="M 223.229324 170.959256 
C 223.229324 163.907587 221.840299 156.924487 219.141742 150.409594 
C 216.443185 143.894701 212.487576 137.974715 207.501293 132.988432 
C 202.51501 128.002149 196.595024 124.04654 190.080131 121.347983 
C 183.565238 118.649426 176.582138 117.260401 169.530469 117.260401 
C 162.4788 117.260401 155.495699 118.649426 148.980806 121.347983 
C 142.465914 124.04654 136.545927 128.002149 131.559644 132.988432 
C 126.573361 137.974715 122.617752 143.894701 119.919195 150.409594 
C 117.220638 156.924487 115.831613 163.907587 115.831613 170.959256 
C 115.831613 178.010925 117.220638 184.994026 119.919195 191.508919 
C 122.617752 198.023811 126.573361 203.943798 131.559644 208.930081 
C 136.545927 213.916364 142.465914 217.871973 148.980806 220.57053 
C 155.495699 223.269087 162.4788 224.658112 169.530469 224.658112 
C 176.582138 224.658112 183.565238 223.269087 190.080131 220.57053 
C 196.595024 217.871973 202.51501 213.916364 207.501293 208.930081 
C 212.487576 203.943798 216.443185 198.023811 219.141742 191.508919 
C 221.840299 184.994026 223.229324 178.010925 223.229324 170.959256 
" clip-path="url(#pa6ebf7fcf9)" style="fill: none; stroke: #b0b0b0; stroke-width: 0.8; stroke-linecap: square"/>
     </g>
     <g id="text_6">
      <!-- 0.15 -->
      <g transform="translate(219.141742 147.913969) scale(0.12 -0.12)">
       <use xlink:href="#DejaVuSerif-30"/>
       <use xlink:href="#DejaVuSerif-2e" transform="translate(63.623047 0)"/>
       <use xlink:href="#DejaVuSerif-31" transform="translate(95.410156 0)"/>
       <use xlink:href="#DejaVuSerif-35" transform="translate(159.033203 0)"/>
      </g>
     </g>
    </g>
    <g id="ytick_4">
     <g id="line2d_7">
      <path d="M 241.128942 170.959256 
C 241.128942 161.557031 239.276909 152.24623 235.678833 143.559707 
C 232.080757 134.873183 226.806612 126.979867 220.158235 120.33149 
C 213.509858 113.683113 205.616542 108.408968 196.930018 104.810892 
C 188.243495 101.212816 178.932694 99.360783 169.530469 99.360783 
C 160.128243 99.360783 150.817443 101.212816 142.130919 104.810892 
C 133.444395 108.408968 125.55108 113.683113 118.902702 120.33149 
C 112.254325 126.979867 106.98018 134.873183 103.382104 143.559707 
C 99.784028 152.24623 97.931995 161.557031 97.931995 170.959256 
C 97.931995 180.361482 99.784028 189.672282 103.382104 198.358806 
C 106.98018 207.04533 112.254325 214.938645 118.902702 221.587023 
C 125.55108 228.2354 133.444395 233.509545 142.130919 237.107621 
C 150.817443 240.705697 160.128243 242.55773 169.530469 242.55773 
C 178.932694 242.55773 188.243495 240.705697 196.930018 237.107621 
C 205.616542 233.509545 213.509858 228.2354 220.158235 221.587023 
C 226.806612 214.938645 232.080757 207.04533 235.678833 198.358806 
C 239.276909 189.672282 241.128942 180.361482 241.128942 170.959256 
" clip-path="url(#pa6ebf7fcf9)" style="fill: none; stroke: #b0b0b0; stroke-width: 0.8; stroke-linecap: square"/>
     </g>
     <g id="text_7">
      <!-- 0.20 -->
      <g transform="translate(235.678833 141.064082) scale(0.12 -0.12)">
       <defs>
        <path id="DejaVuSerif-32" d="M 819 3553 
L 469 3553 
L 469 4384 
Q 803 4563 1142 4656 
Q 1481 4750 1806 4750 
Q 2534 4750 2956 4397 
Q 3378 4044 3378 3438 
Q 3378 2753 2422 1800 
Q 2347 1728 2309 1691 
L 1131 513 
L 3078 513 
L 3078 1088 
L 3444 1088 
L 3444 0 
L 434 0 
L 434 341 
L 1850 1753 
Q 2319 2222 2519 2614 
Q 2719 3006 2719 3438 
Q 2719 3909 2473 4175 
Q 2228 4441 1797 4441 
Q 1350 4441 1106 4219 
Q 863 3997 819 3553 
z
" transform="scale(0.015625)"/>
       </defs>
       <use xlink:href="#DejaVuSerif-30"/>
       <use xlink:href="#DejaVuSerif-2e" transform="translate(63.623047 0)"/>
       <use xlink:href="#DejaVuSerif-32" transform="translate(95.410156 0)"/>
       <use xlink:href="#DejaVuSerif-30" transform="translate(159.033203 0)"/>
      </g>
     </g>
    </g>
    <g id="ytick_5">
     <g id="line2d_8">
      <path d="M 259.028561 170.959256 
C 259.028561 159.206474 256.713519 147.567974 252.215924 136.709819 
C 247.718329 125.851665 241.125648 115.98502 232.815177 107.674548 
C 224.504705 99.364077 214.63806 92.771396 203.779906 88.273801 
C 192.921751 83.776206 181.283251 81.461164 169.530469 81.461164 
C 157.777687 81.461164 146.139186 83.776206 135.281032 88.273801 
C 124.422877 92.771396 114.556233 99.364077 106.245761 107.674548 
C 97.935289 115.98502 91.342608 125.851665 86.845013 136.709819 
C 82.347418 147.567974 80.032377 159.206474 80.032377 170.959256 
C 80.032377 182.712038 82.347418 194.350539 86.845013 205.208693 
C 91.342608 216.066848 97.935289 225.933492 106.245761 234.243964 
C 114.556233 242.554436 124.422877 249.147117 135.281032 253.644712 
C 146.139186 258.142307 157.777687 260.457348 169.530469 260.457348 
C 181.283251 260.457348 192.921751 258.142307 203.779906 253.644712 
C 214.63806 249.147117 224.504705 242.554436 232.815177 234.243964 
C 241.125648 225.933492 247.718329 216.066848 252.215924 205.208693 
C 256.713519 194.350539 259.028561 182.712038 259.028561 170.959256 
" clip-path="url(#pa6ebf7fcf9)" style="fill: none; stroke: #b0b0b0; stroke-width: 0.8; stroke-linecap: square"/>
     </g>
     <g id="text_8">
      <!-- 0.25 -->
      <g transform="translate(252.215924 134.214194) scale(0.12 -0.12)">
       <use xlink:href="#DejaVuSerif-30"/>
       <use xlink:href="#DejaVuSerif-2e" transform="translate(63.623047 0)"/>
       <use xlink:href="#DejaVuSerif-32" transform="translate(95.410156 0)"/>
       <use xlink:href="#DejaVuSerif-35" transform="translate(159.033203 0)"/>
      </g>
     </g>
    </g>
    <g id="ytick_6">
     <g id="line2d_9">
      <path d="M 276.928179 170.959256 
C 276.928179 156.855918 274.150129 142.889717 268.753015 129.859932 
C 263.355902 116.830146 255.444684 104.990173 245.472118 95.017607 
C 235.499552 85.045041 223.659579 77.133823 210.629793 71.73671 
C 197.600008 66.339596 183.633807 63.561546 169.530469 63.561546 
C 155.427131 63.561546 141.46093 66.339596 128.431144 71.73671 
C 115.401359 77.133823 103.561385 85.045041 93.588819 95.017607 
C 83.616253 104.990173 75.705036 116.830146 70.307922 129.859932 
C 64.910808 142.889717 62.132758 156.855918 62.132758 170.959256 
C 62.132758 185.062594 64.910808 199.028795 70.307922 212.058581 
C 75.705036 225.088366 83.616253 236.92834 93.588819 246.900906 
C 103.561385 256.873472 115.401359 264.784689 128.431144 270.181803 
C 141.46093 275.578917 155.427131 278.356967 169.530469 278.356967 
C 183.633807 278.356967 197.600008 275.578917 210.629793 270.181803 
C 223.659579 264.784689 235.499552 256.873472 245.472118 246.900906 
C 255.444684 236.92834 263.355902 225.088366 268.753015 212.058581 
C 274.150129 199.028795 276.928179 185.062594 276.928179 170.959256 
" clip-path="url(#pa6ebf7fcf9)" style="fill: none; stroke: #b0b0b0; stroke-width: 0.8; stroke-linecap: square"/>
     </g>
     <g id="text_9">
      <!-- 0.30 -->
      <g transform="translate(268.753015 127.364307) scale(0.12 -0.12)">
       <defs>
        <path id="DejaVuSerif-33" d="M 622 4469 
Q 988 4606 1323 4678 
Q 1659 4750 1953 4750 
Q 2638 4750 3022 4454 
Q 3406 4159 3406 3634 
Q 3406 3213 3140 2930 
Q 2875 2647 2388 2547 
Q 2963 2466 3280 2130 
Q 3597 1794 3597 1259 
Q 3597 606 3158 257 
Q 2719 -91 1894 -91 
Q 1528 -91 1179 -12 
Q 831 66 488 225 
L 488 1131 
L 838 1131 
Q 869 681 1141 450 
Q 1413 219 1906 219 
Q 2384 219 2661 495 
Q 2938 772 2938 1253 
Q 2938 1803 2653 2086 
Q 2369 2369 1819 2369 
L 1522 2369 
L 1522 2688 
L 1678 2688 
Q 2225 2688 2498 2914 
Q 2772 3141 2772 3597 
Q 2772 4006 2547 4223 
Q 2322 4441 1900 4441 
Q 1478 4441 1245 4241 
Q 1013 4041 972 3647 
L 622 3647 
L 622 4469 
z
" transform="scale(0.015625)"/>
       </defs>
       <use xlink:href="#DejaVuSerif-30"/>
       <use xlink:href="#DejaVuSerif-2e" transform="translate(63.623047 0)"/>
       <use xlink:href="#DejaVuSerif-33" transform="translate(95.410156 0)"/>
       <use xlink:href="#DejaVuSerif-30" transform="translate(159.033203 0)"/>
      </g>
     </g>
    </g>
   </g>
   <g id="line2d_10">
    <path d="M 289.815905 170.959256 
L 111.893697 71.12944 
L 126.213392 245.986634 
L 289.815905 170.959256 
" clip-path="url(#pa6ebf7fcf9)" style="fill: none; stroke: #1f77b4; stroke-width: 2; stroke-linecap: square"/>
   </g>
   <g id="patch_4">
    <path d="M 291.498469 170.959256 
C 291.498469 154.942565 288.34353 139.081616 282.214208 124.284123 
C 276.084885 109.48663 267.100379 96.040367 255.774869 84.714856 
C 244.449358 73.389346 231.003095 64.40484 216.205602 58.275517 
C 201.408109 52.146195 185.54716 48.991256 169.530469 48.991256 
C 153.513778 48.991256 137.652829 52.146195 122.855336 58.275517 
C 108.057843 64.40484 94.61158 73.389346 83.286069 84.714856 
C 71.960558 96.040367 62.976052 109.48663 56.84673 124.284123 
C 50.717408 139.081616 47.562469 154.942565 47.562469 170.959256 
C 47.562469 186.975947 50.717408 202.836896 56.84673 217.634389 
C 62.976052 232.431882 71.960558 245.878145 83.286069 257.203656 
C 94.61158 268.529167 108.057843 277.513673 122.855336 283.642995 
C 137.652829 289.772317 153.513778 292.927256 169.530469 292.927256 
C 185.54716 292.927256 201.408109 289.772317 216.205602 283.642995 
C 231.003095 277.513673 244.449358 268.529167 255.774869 257.203656 
C 267.100379 245.878145 276.084885 232.431882 282.214208 217.634389 
C 288.34353 202.836896 291.498469 186.975947 291.498469 170.959256 
" style="fill: none; stroke: #000000; stroke-linejoin: miter; stroke-linecap: square"/>
   </g>
   <g id="text_10">
    <!-- Balance de Métricas: Moscas v1 (Medium) -->
    <g transform="translate(7.2 18.597656) scale(0.15 -0.15)">
     <defs>
      <path id="DejaVuSerif-42" d="M 1581 331 
L 2516 331 
Q 3078 331 3337 575 
Q 3597 819 3597 1350 
Q 3597 1878 3339 2120 
Q 3081 2363 2516 2363 
L 1581 2363 
L 1581 331 
z
M 1581 2694 
L 2375 2694 
Q 2888 2694 3123 2891 
Q 3359 3088 3359 3513 
Q 3359 3941 3123 4136 
Q 2888 4331 2375 4331 
L 1581 4331 
L 1581 2694 
z
M 353 0 
L 353 331 
L 947 331 
L 947 4331 
L 353 4331 
L 353 4666 
L 2656 4666 
Q 3363 4666 3720 4377 
Q 4078 4088 4078 3513 
Q 4078 3097 3829 2850 
Q 3581 2603 3103 2547 
Q 3697 2472 4005 2167 
Q 4313 1863 4313 1350 
Q 4313 656 3875 328 
Q 3438 0 2509 0 
L 353 0 
z
" transform="scale(0.015625)"/>
      <path id="DejaVuSerif-20" transform="scale(0.015625)"/>
      <path id="DejaVuSerif-64" d="M 3359 331 
L 3909 331 
L 3909 0 
L 2784 0 
L 2784 519 
Q 2616 206 2355 57 
Q 2094 -91 1709 -91 
Q 1097 -91 708 395 
Q 319 881 319 1663 
Q 319 2444 706 2928 
Q 1094 3413 1709 3413 
Q 2094 3413 2355 3264 
Q 2616 3116 2784 2803 
L 2784 4531 
L 2241 4531 
L 2241 4863 
L 3359 4863 
L 3359 331 
z
M 2784 1497 
L 2784 1825 
Q 2784 2422 2554 2737 
Q 2325 3053 1888 3053 
Q 1444 3053 1217 2703 
Q 991 2353 991 1663 
Q 991 975 1217 622 
Q 1444 269 1888 269 
Q 2325 269 2554 583 
Q 2784 897 2784 1497 
z
" transform="scale(0.015625)"/>
      <path id="DejaVuSerif-4d" d="M 353 0 
L 353 331 
L 947 331 
L 947 4331 
L 319 4331 
L 319 4666 
L 1678 4666 
L 3316 1344 
L 4953 4666 
L 6228 4666 
L 6228 4331 
L 5606 4331 
L 5606 331 
L 6203 331 
L 6203 0 
L 4378 0 
L 4378 331 
L 4972 331 
L 4972 3938 
L 3372 684 
L 2931 684 
L 1331 3938 
L 1331 331 
L 1925 331 
L 1925 0 
L 353 0 
z
" transform="scale(0.015625)"/>
      <path id="DejaVuSerif-e9" d="M 3469 1600 
L 991 1600 
L 991 1575 
Q 991 903 1244 561 
Q 1497 219 1991 219 
Q 2369 219 2611 417 
Q 2853 616 2950 1006 
L 3413 1006 
Q 3275 459 2904 184 
Q 2534 -91 1931 -91 
Q 1203 -91 761 389 
Q 319 869 319 1663 
Q 319 2450 753 2931 
Q 1188 3413 1894 3413 
Q 2647 3413 3050 2948 
Q 3453 2484 3469 1600 
z
M 2791 1931 
Q 2772 2513 2545 2808 
Q 2319 3103 1894 3103 
Q 1497 3103 1269 2806 
Q 1041 2509 991 1931 
L 2791 1931 
z
M 2330 5119 
L 2952 5119 
L 1890 3944 
L 1524 3944 
L 2330 5119 
z
" transform="scale(0.015625)"/>
      <path id="DejaVuSerif-74" d="M 691 2988 
L 184 2988 
L 184 3322 
L 691 3322 
L 691 4353 
L 1269 4353 
L 1269 3322 
L 2350 3322 
L 2350 2988 
L 1269 2988 
L 1269 878 
Q 1269 456 1350 337 
Q 1431 219 1650 219 
Q 1875 219 1978 351 
Q 2081 484 2088 781 
L 2522 781 
Q 2497 328 2275 118 
Q 2053 -91 1600 -91 
Q 1103 -91 897 129 
Q 691 350 691 878 
L 691 2988 
z
" transform="scale(0.015625)"/>
      <path id="DejaVuSerif-3a" d="M 666 325 
Q 666 500 786 622 
Q 906 744 1081 744 
Q 1256 744 1376 622 
Q 1497 500 1497 325 
Q 1497 150 1378 29 
Q 1259 -91 1081 -91 
Q 903 -91 784 29 
Q 666 150 666 325 
z
M 666 2363 
Q 666 2538 786 2658 
Q 906 2778 1081 2778 
Q 1259 2778 1378 2659 
Q 1497 2541 1497 2363 
Q 1497 2184 1378 2065 
Q 1259 1947 1081 1947 
Q 906 1947 786 2067 
Q 666 2188 666 2363 
z
" transform="scale(0.015625)"/>
      <path id="DejaVuSerif-6f" d="M 1925 219 
Q 2388 219 2623 584 
Q 2859 950 2859 1663 
Q 2859 2375 2623 2739 
Q 2388 3103 1925 3103 
Q 1463 3103 1227 2739 
Q 991 2375 991 1663 
Q 991 950 1228 584 
Q 1466 219 1925 219 
z
M 1925 -91 
Q 1200 -91 759 389 
Q 319 869 319 1663 
Q 319 2456 758 2934 
Q 1197 3413 1925 3413 
Q 2653 3413 3092 2934 
Q 3531 2456 3531 1663 
Q 3531 869 3092 389 
Q 2653 -91 1925 -91 
z
" transform="scale(0.015625)"/>
      <path id="DejaVuSerif-76" d="M 1581 0 
L 359 2988 
L -19 2988 
L -19 3322 
L 1509 3322 
L 1509 2988 
L 978 2988 
L 1913 703 
L 2847 2988 
L 2350 2988 
L 2350 3322 
L 3597 3322 
L 3597 2988 
L 3225 2988 
L 2003 0 
L 1581 0 
z
" transform="scale(0.015625)"/>
      <path id="DejaVuSerif-28" d="M 2041 -997 
Q 1281 -656 893 83 
Q 506 822 506 1931 
Q 506 3044 893 3783 
Q 1281 4522 2041 4863 
L 2041 4556 
Q 1559 4225 1350 3623 
Q 1141 3022 1141 1931 
Q 1141 844 1350 242 
Q 1559 -359 2041 -691 
L 2041 -997 
z
" transform="scale(0.015625)"/>
      <path id="DejaVuSerif-75" d="M 2266 3322 
L 3341 3322 
L 3341 331 
L 3884 331 
L 3884 0 
L 2766 0 
L 2766 588 
Q 2606 256 2353 82 
Q 2100 -91 1766 -91 
Q 1213 -91 952 223 
Q 691 538 691 1209 
L 691 2988 
L 172 2988 
L 172 3322 
L 1269 3322 
L 1269 1388 
Q 1269 781 1417 556 
Q 1566 331 1947 331 
Q 2347 331 2556 625 
Q 2766 919 2766 1478 
L 2766 2988 
L 2266 2988 
L 2266 3322 
z
" transform="scale(0.015625)"/>
      <path id="DejaVuSerif-29" d="M 453 -997 
L 453 -691 
Q 934 -359 1145 242 
Q 1356 844 1356 1931 
Q 1356 3022 1145 3623 
Q 934 4225 453 4556 
L 453 4863 
Q 1216 4522 1603 3783 
Q 1991 3044 1991 1931 
Q 1991 822 1603 83 
Q 1216 -656 453 -997 
z
" transform="scale(0.015625)"/>
     </defs>
     <use xlink:href="#DejaVuSerif-42"/>
     <use xlink:href="#DejaVuSerif-61" transform="translate(73.486328 0)"/>
     <use xlink:href="#DejaVuSerif-6c" transform="translate(133.105469 0)"/>
     <use xlink:href="#DejaVuSerif-61" transform="translate(165.087891 0)"/>
     <use xlink:href="#DejaVuSerif-6e" transform="translate(224.707031 0)"/>
     <use xlink:href="#DejaVuSerif-63" transform="translate(289.111328 0)"/>
     <use xlink:href="#DejaVuSerif-65" transform="translate(345.117188 0)"/>
     <use xlink:href="#DejaVuSerif-20" transform="translate(404.296875 0)"/>
     <use xlink:href="#DejaVuSerif-64" transform="translate(436.083984 0)"/>
     <use xlink:href="#DejaVuSerif-65" transform="translate(500.097656 0)"/>
     <use xlink:href="#DejaVuSerif-20" transform="translate(559.277344 0)"/>
     <use xlink:href="#DejaVuSerif-4d" transform="translate(591.064453 0)"/>
     <use xlink:href="#DejaVuSerif-e9" transform="translate(693.457031 0)"/>
     <use xlink:href="#DejaVuSerif-74" transform="translate(752.636719 0)"/>
     <use xlink:href="#DejaVuSerif-72" transform="translate(792.822266 0)"/>
     <use xlink:href="#DejaVuSerif-69" transform="translate(840.625 0)"/>
     <use xlink:href="#DejaVuSerif-63" transform="translate(872.607422 0)"/>
     <use xlink:href="#DejaVuSerif-61" transform="translate(928.613281 0)"/>
     <use xlink:href="#DejaVuSerif-73" transform="translate(988.232422 0)"/>
     <use xlink:href="#DejaVuSerif-3a" transform="translate(1039.550781 0)"/>
     <use xlink:href="#DejaVuSerif-20" transform="translate(1073.242188 0)"/>
     <use xlink:href="#DejaVuSerif-4d" transform="translate(1105.029297 0)"/>
     <use xlink:href="#DejaVuSerif-6f" transform="translate(1207.421875 0)"/>
     <use xlink:href="#DejaVuSerif-73" transform="translate(1267.626953 0)"/>
     <use xlink:href="#DejaVuSerif-63" transform="translate(1318.945312 0)"/>
     <use xlink:href="#DejaVuSerif-61" transform="translate(1374.951172 0)"/>
     <use xlink:href="#DejaVuSerif-73" transform="translate(1434.570312 0)"/>
     <use xlink:href="#DejaVuSerif-20" transform="translate(1485.888672 0)"/>
     <use xlink:href="#DejaVuSerif-76" transform="translate(1517.675781 0)"/>
     <use xlink:href="#DejaVuSerif-31" transform="translate(1574.169922 0)"/>
     <use xlink:href="#DejaVuSerif-20" transform="translate(1637.792969 0)"/>
     <use xlink:href="#DejaVuSerif-28" transform="translate(1669.580078 0)"/>
     <use xlink:href="#DejaVuSerif-4d" transform="translate(1708.59375 0)"/>
     <use xlink:href="#DejaVuSerif-65" transform="translate(1810.986328 0)"/>
     <use xlink:href="#DejaVuSerif-64" transform="translate(1870.166016 0)"/>
     <use xlink:href="#DejaVuSerif-69" transform="translate(1934.179688 0)"/>
     <use xlink:href="#DejaVuSerif-75" transform="translate(1966.162109 0)"/>
     <use xlink:href="#DejaVuSerif-6d" transform="translate(2030.566406 0)"/>
     <use xlink:href="#DejaVuSerif-29" transform="translate(2125.390625 0)"/>
    </g>
   </g>
  </g>
 </g>
 <defs>
  <clipPath id="pa6ebf7fcf9">
   <path d="M 291.498469 170.959256 
C 291.498469 154.942565 288.34353 139.081616 282.214208 124.284123 
C 276.084885 109.48663 267.100379 96.040367 255.774869 84.714856 
C 244.449358 73.389346 231.003095 64.40484 216.205602 58.275517 
C 201.408109 52.146195 185.54716 48.991256 169.530469 48.991256 
C 153.513778 48.991256 137.652829 52.146195 122.855336 58.275517 
C 108.057843 64.40484 94.61158 73.389346 83.286069 84.714856 
C 71.960558 96.040367 62.976052 109.48663 56.84673 124.284123 
C 50.717408 139.081616 47.562469 154.942565 47.562469 170.959256 
C 47.562469 186.975947 50.717408 202.836896 56.84673 217.634389 
C 62.976052 232.431882 71.960558 245.878145 83.286069 257.203656 
C 94.61158 268.529167 108.057843 277.513673 122.855336 283.642995 
C 137.652829 289.772317 153.513778 292.927256 169.530469 292.927256 
C 185.54716 292.927256 201.408109 289.772317 216.205602 283.642995 
C 231.003095 277.513673 244.449358 268.529167 255.774869 257.203656 
C 267.100379 245.878145 276.084885 232.431882 282.214208 217.634389 
C 288.34353 202.836896 291.498469 186.975947 291.498469 170.959256 
M 169.530469 170.959256 
C 169.530469 170.959256 169.530469 170.959256 169.530469 170.959256 
C 169.530469 170.959256 169.530469 170.959256 169.530469 170.959256 
C 169.530469 170.959256 169.530469 170.959256 169.530469 170.959256 
C 169.530469 170.959256 169.530469 170.959256 169.530469 170.959256 
C 169.530469 170.959256 169.530469 170.959256 169.530469 170.959256 
C 169.530469 170.959256 169.530469 170.959256 169.530469 170.959256 
C 169.530469 170.959256 169.530469 170.959256 169.530469 170.959256 
C 169.530469 170.959256 169.530469 170.959256 169.530469 170.959256 
C 169.530469 170.959256 169.530469 170.959256 169.530469 170.959256 
C 169.530469 170.959256 169.530469 170.959256 169.530469 170.959256 
C 169.530469 170.959256 169.530469 170.959256 169.530469 170.959256 
C 169.530469 170.959256 169.530469 170.959256 169.530469 170.959256 
C 169.530469 170.959256 169.530469 170.959256 169.530469 170.959256 
C 169.530469 170.959256 169.530469 170.959256 169.530469 170.959256 
C 169.530469 170.959256 169.530469 170.959256 169.530469 170.959256 
C 169.530469 170.959256 169.530469 170.959256 169.530469 170.959256 
z
"/>
  </clipPath>
 </defs>
</svg>
