<?xml version="1.0" encoding="utf-8" standalone="no"?>
<!DOCTYPE svg PUBLIC "-//W3C//DTD SVG 1.1//EN"
  "http://www.w3.org/Graphics/SVG/1.1/DTD/svg11.dtd">
<svg xmlns:xlink="http://www.w3.org/1999/xlink" width="339.492609pt" height="304.66236pt" viewBox="0 0 339.492609 304.66236" xmlns="http://www.w3.org/2000/svg" version="1.1">
 <metadata>
  <rdf:RDF xmlns:dc="http://purl.org/dc/elements/1.1/" xmlns:cc="http://creativecommons.org/ns#" xmlns:rdf="http://www.w3.org/1999/02/22-rdf-syntax-ns#">
   <cc:Work>
    <dc:type rdf:resource="http://purl.org/dc/dcmitype/StillImage"/>
    <dc:date>2026-05-21T16:07:35.570886</dc:date>
    <dc:format>image/svg+xml</dc:format>
    <dc:creator>
     <cc:Agent>
      <dc:title>Matplotlib v3.10.8, https://matplotlib.org/</dc:title>
     </cc:Agent>
    </dc:creator>
   </cc:Work>
  </rdf:RDF>
 </metadata>
 <defs>
  <style type="text/css">*{stroke-linejoin: round; stroke-linecap: butt}</style>
 </defs>
 <g id="figure_1">
  <g id="patch_1">
   <path d="M 0 304.66236 
L 339.492609 304.66236 
L 339.492609 -0 
L 0 -0 
z
" style="fill: #ffffff"/>
  </g>
  <g id="axes_1">
   <g id="patch_2">
    <path d="M 286.683234 170.959256 
C 286.683234 154.942565 283.528295 139.081616 277.398973 124.284123 
C 271.269651 109.48663 262.285145 96.040367 250.959634 84.714856 
C 239.634123 73.389346 226.18786 64.40484 211.390367 58.275517 
C 196.592874 52.146195 180.731925 48.991256 164.715234 48.991256 
C 148.698543 48.991256 132.837594 52.146195 118.040101 58.275517 
C 103.242608 64.40484 89.796345 73.389346 78.470834 84.714856 
C 67.145324 96.040367 58.160818 109.48663 52.031496 124.284123 
C 45.902173 139.081616 42.747234 154.942565 42.747234 170.959256 
C 42.747234 186.975947 45.902173 202.836896 52.031496 217.634389 
C 58.160818 232.431882 67.145324 245.878145 78.470834 257.203656 
C 89.796345 268.529167 103.242608 277.513673 118.040101 283.642995 
C 132.837594 289.772317 148.698543 292.927256 164.715234 292.927256 
C 180.731925 292.927256 196.592874 289.772317 211.390367 283.642995 
C 226.18786 277.513673 239.634123 268.529167 250.959634 257.203656 
C 262.285145 245.878145 271.269651 232.431882 277.398973 217.634389 
C 283.528295 202.836896 286.683234 186.975947 286.683234 170.959256 
M 164.715234 170.959256 
C 164.715234 170.959256 164.715234 170.959256 164.715234 170.959256 
C 164.715234 170.959256 164.715234 170.959256 164.715234 170.959256 
C 164.715234 170.959256 164.715234 170.959256 164.715234 170.959256 
C 164.715234 170.959256 164.715234 170.959256 164.715234 170.959256 
C 164.715234 170.959256 164.715234 170.959256 164.715234 170.959256 
C 164.715234 170.959256 164.715234 170.959256 164.715234 170.959256 
C 164.715234 170.959256 164.715234 170.959256 164.715234 170.959256 
C 164.715234 170.959256 164.715234 170.959256 164.715234 170.959256 
C 164.715234 170.959256 164.715234 170.959256 164.715234 170.959256 
C 164.715234 170.959256 164.715234 170.959256 164.715234 170.959256 
C 164.715234 170.959256 164.715234 170.959256 164.715234 170.959256 
C 164.715234 170.959256 164.715234 170.959256 164.715234 170.959256 
C 164.715234 170.959256 164.715234 170.959256 164.715234 170.959256 
C 164.715234 170.959256 164.715234 170.959256 164.715234 170.959256 
C 164.715234 170.959256 164.715234 170.959256 164.715234 170.959256 
C 164.715234 170.959256 164.715234 170.959256 164.715234 170.959256 
z
" style="fill: #ffffff"/>
   </g>
   <g id="patch_3">
    <path d="M 283.414698 170.959256 
L 138.050862 124.775209 
L 138.050862 217.143304 
z
" clip-path="url(#paa769365fb)" style="fill: #0000ff; opacity: 0.1"/>
   </g>
   <g id="matplotlib.axis_1">
    <g id="xtick_1">
     <g id="line2d_1">
      <path d="M 164.715234 170.959256 
L 286.683234 170.959256 
" clip-path="url(#paa769365fb)" style="fill: none; stroke: #b0b0b0; stroke-width: 0.8; stroke-linecap: square"/>
     </g>
     <g id="text_1">
      <!-- Precisión -->
      <g transform="translate(275.873859 174.270506) scale(0.12 -0.12)">
       <defs>
        <path id="DejaVuSerif-50" d="M 1581 2375 
L 2406 2375 
Q 2872 2375 3115 2626 
Q 3359 2878 3359 3353 
Q 3359 3831 3115 4081 
Q 2872 4331 2406 4331 
L 1581 4331 
L 1581 2375 
z
M 353 0 
L 353 331 
L 947 331 
L 947 4331 
L 353 4331 
L 353 4666 
L 2559 4666 
Q 3259 4666 3668 4311 
Q 4078 3956 4078 3353 
Q 4078 2753 3668 2397 
Q 3259 2041 2559 2041 
L 1581 2041 
L 1581 331 
L 2303 331 
L 2303 0 
L 353 0 
z
" transform="scale(0.015625)"/>
        <path id="DejaVuSerif-72" d="M 3059 3328 
L 3059 2497 
L 2728 2497 
Q 2713 2744 2591 2866 
Q 2469 2988 2234 2988 
Q 1809 2988 1582 2694 
Q 1356 2400 1356 1850 
L 1356 331 
L 2022 331 
L 2022 0 
L 263 0 
L 263 331 
L 781 331 
L 781 2994 
L 231 2994 
L 231 3322 
L 1356 3322 
L 1356 2731 
Q 1525 3078 1790 3245 
Q 2056 3413 2438 3413 
Q 2578 3413 2733 3391 
Q 2888 3369 3059 3328 
z
" transform="scale(0.015625)"/>
        <path id="DejaVuSerif-65" d="M 3469 1600 
L 991 1600 
L 991 1575 
Q 991 903 1244 561 
Q 1497 219 1991 219 
Q 2369 219 2611 417 
Q 2853 616 2950 1006 
L 3413 1006 
Q 3275 459 2904 184 
Q 2534 -91 1931 -91 
Q 1203 -91 761 389 
Q 319 869 319 1663 
Q 319 2450 753 2931 
Q 1188 3413 1894 3413 
Q 2647 3413 3050 2948 
Q 3453 2484 3469 1600 
z
M 2791 1931 
Q 2772 2513 2545 2808 
Q 2319 3103 1894 3103 
Q 1497 3103 1269 2806 
Q 1041 2509 991 1931 
L 2791 1931 
z
" transform="scale(0.015625)"/>
        <path id="DejaVuSerif-63" d="M 3291 997 
Q 3169 466 2822 187 
Q 2475 -91 1925 -91 
Q 1200 -91 759 389 
Q 319 869 319 1663 
Q 319 2459 759 2936 
Q 1200 3413 1925 3413 
Q 2241 3413 2553 3339 
Q 2866 3266 3181 3116 
L 3181 2266 
L 2847 2266 
Q 2781 2703 2561 2903 
Q 2341 3103 1931 3103 
Q 1466 3103 1228 2742 
Q 991 2381 991 1663 
Q 991 944 1227 581 
Q 1463 219 1931 219 
Q 2303 219 2525 412 
Q 2747 606 2828 997 
L 3291 997 
z
" transform="scale(0.015625)"/>
        <path id="DejaVuSerif-69" d="M 622 4353 
Q 622 4497 726 4603 
Q 831 4709 978 4709 
Q 1122 4709 1226 4603 
Q 1331 4497 1331 4353 
Q 1331 4206 1228 4103 
Q 1125 4000 978 4000 
Q 831 4000 726 4103 
Q 622 4206 622 4353 
z
M 1356 331 
L 1900 331 
L 1900 0 
L 231 0 
L 231 331 
L 781 331 
L 781 2988 
L 231 2988 
L 231 3322 
L 1356 3322 
L 1356 331 
z
" transform="scale(0.015625)"/>
        <path id="DejaVuSerif-73" d="M 359 184 
L 359 959 
L 691 959 
Q 703 588 923 403 
Q 1144 219 1575 219 
Q 1963 219 2166 364 
Q 2369 509 2369 788 
Q 2369 1006 2220 1140 
Q 2072 1275 1594 1428 
L 1178 1569 
Q 750 1706 558 1912 
Q 366 2119 366 2438 
Q 366 2894 700 3153 
Q 1034 3413 1625 3413 
Q 1888 3413 2178 3344 
Q 2469 3275 2778 3144 
L 2778 2419 
L 2447 2419 
Q 2434 2741 2221 2922 
Q 2009 3103 1644 3103 
Q 1281 3103 1095 2975 
Q 909 2847 909 2591 
Q 909 2381 1050 2254 
Q 1191 2128 1613 1997 
L 2069 1856 
Q 2541 1709 2748 1489 
Q 2956 1269 2956 922 
Q 2956 450 2595 179 
Q 2234 -91 1600 -91 
Q 1278 -91 972 -22 
Q 666 47 359 184 
z
" transform="scale(0.015625)"/>
        <path id="DejaVuSerif-f3" d="M 1925 219 
Q 2388 219 2623 584 
Q 2859 950 2859 1663 
Q 2859 2375 2623 2739 
Q 2388 3103 1925 3103 
Q 1463 3103 1227 2739 
Q 991 2375 991 1663 
Q 991 950 1228 584 
Q 1466 219 1925 219 
z
M 1925 -91 
Q 1200 -91 759 389 
Q 319 869 319 1663 
Q 319 2456 758 2934 
Q 1197 3413 1925 3413 
Q 2653 3413 3092 2934 
Q 3531 2456 3531 1663 
Q 3531 869 3092 389 
Q 2653 -91 1925 -91 
z
M 2362 5119 
L 2984 5119 
L 1922 3944 
L 1556 3944 
L 2362 5119 
z
" transform="scale(0.015625)"/>
        <path id="DejaVuSerif-6e" d="M 263 0 
L 263 331 
L 781 331 
L 781 2988 
L 231 2988 
L 231 3322 
L 1356 3322 
L 1356 2731 
Q 1516 3069 1770 3241 
Q 2025 3413 2363 3413 
Q 2913 3413 3172 3097 
Q 3431 2781 3431 2113 
L 3431 331 
L 3944 331 
L 3944 0 
L 2356 0 
L 2356 331 
L 2853 331 
L 2853 1931 
Q 2853 2541 2703 2767 
Q 2553 2994 2175 2994 
Q 1775 2994 1565 2701 
Q 1356 2409 1356 1850 
L 1356 331 
L 1856 331 
L 1856 0 
L 263 0 
z
" transform="scale(0.015625)"/>
       </defs>
       <use xlink:href="#DejaVuSerif-50"/>
       <use xlink:href="#DejaVuSerif-72" transform="translate(67.285156 0)"/>
       <use xlink:href="#DejaVuSerif-65" transform="translate(115.087891 0)"/>
       <use xlink:href="#DejaVuSerif-63" transform="translate(174.267578 0)"/>
       <use xlink:href="#DejaVuSerif-69" transform="translate(230.273438 0)"/>
       <use xlink:href="#DejaVuSerif-73" transform="translate(262.255859 0)"/>
       <use xlink:href="#DejaVuSerif-69" transform="translate(313.574219 0)"/>
       <use xlink:href="#DejaVuSerif-f3" transform="translate(345.556641 0)"/>
       <use xlink:href="#DejaVuSerif-6e" transform="translate(405.761719 0)"/>
      </g>
     </g>
    </g>
    <g id="xtick_2">
     <g id="line2d_2">
      <path d="M 164.715234 170.959256 
L 103.731234 65.33187 
" clip-path="url(#paa769365fb)" style="fill: none; stroke: #b0b0b0; stroke-width: 0.8; stroke-linecap: square"/>
     </g>
     <g id="text_2">
      <!-- Recall -->
      <g transform="translate(76.186547 53.574278) scale(0.12 -0.12)">
       <defs>
        <path id="DejaVuSerif-52" d="M 3066 2316 
Q 3284 2256 3442 2114 
Q 3600 1972 3725 1716 
L 4403 331 
L 4972 331 
L 4972 0 
L 3872 0 
L 3144 1484 
Q 2934 1916 2759 2042 
Q 2584 2169 2278 2169 
L 1581 2169 
L 1581 331 
L 2241 331 
L 2241 0 
L 353 0 
L 353 331 
L 947 331 
L 947 4331 
L 353 4331 
L 353 4666 
L 2719 4666 
Q 3400 4666 3770 4341 
Q 4141 4016 4141 3419 
Q 4141 2938 3870 2661 
Q 3600 2384 3066 2316 
z
M 1581 2503 
L 2503 2503 
Q 2975 2503 3200 2726 
Q 3425 2950 3425 3419 
Q 3425 3888 3200 4109 
Q 2975 4331 2503 4331 
L 1581 4331 
L 1581 2503 
z
" transform="scale(0.015625)"/>
        <path id="DejaVuSerif-61" d="M 2547 1044 
L 2547 1747 
L 1806 1747 
Q 1378 1747 1168 1562 
Q 959 1378 959 997 
Q 959 650 1171 447 
Q 1384 244 1747 244 
Q 2106 244 2326 466 
Q 2547 688 2547 1044 
z
M 3122 2075 
L 3122 331 
L 3634 331 
L 3634 0 
L 2547 0 
L 2547 359 
Q 2356 128 2106 18 
Q 1856 -91 1522 -91 
Q 969 -91 644 203 
Q 319 497 319 997 
Q 319 1513 691 1797 
Q 1063 2081 1741 2081 
L 2547 2081 
L 2547 2309 
Q 2547 2688 2317 2895 
Q 2088 3103 1672 3103 
Q 1328 3103 1125 2947 
Q 922 2791 872 2484 
L 575 2484 
L 575 3156 
Q 875 3284 1158 3348 
Q 1441 3413 1709 3413 
Q 2400 3413 2761 3070 
Q 3122 2728 3122 2075 
z
" transform="scale(0.015625)"/>
        <path id="DejaVuSerif-6c" d="M 1313 331 
L 1856 331 
L 1856 0 
L 184 0 
L 184 331 
L 738 331 
L 738 4531 
L 184 4531 
L 184 4863 
L 1313 4863 
L 1313 331 
z
" transform="scale(0.015625)"/>
       </defs>
       <use xlink:href="#DejaVuSerif-52"/>
       <use xlink:href="#DejaVuSerif-65" transform="translate(75.292969 0)"/>
       <use xlink:href="#DejaVuSerif-63" transform="translate(134.472656 0)"/>
       <use xlink:href="#DejaVuSerif-61" transform="translate(190.478516 0)"/>
       <use xlink:href="#DejaVuSerif-6c" transform="translate(250.097656 0)"/>
       <use xlink:href="#DejaVuSerif-6c" transform="translate(282.080078 0)"/>
      </g>
     </g>
    </g>
    <g id="xtick_3">
     <g id="line2d_3">
      <path d="M 164.715234 170.959256 
L 103.731234 276.586643 
" clip-path="url(#paa769365fb)" style="fill: none; stroke: #b0b0b0; stroke-width: 0.8; stroke-linecap: square"/>
     </g>
     <g id="text_3">
      <!-- mAP50 -->
      <g transform="translate(73.336547 294.966735) scale(0.12 -0.12)">
       <defs>
        <path id="DejaVuSerif-6d" d="M 3316 2675 
Q 3481 3041 3739 3227 
Q 3997 3413 4341 3413 
Q 4863 3413 5119 3089 
Q 5375 2766 5375 2113 
L 5375 331 
L 5894 331 
L 5894 0 
L 4300 0 
L 4300 331 
L 4800 331 
L 4800 2047 
Q 4800 2556 4650 2772 
Q 4500 2988 4153 2988 
Q 3769 2988 3567 2697 
Q 3366 2406 3366 1850 
L 3366 331 
L 3866 331 
L 3866 0 
L 2291 0 
L 2291 331 
L 2791 331 
L 2791 2069 
Q 2791 2566 2641 2777 
Q 2491 2988 2144 2988 
Q 1759 2988 1557 2697 
Q 1356 2406 1356 1850 
L 1356 331 
L 1856 331 
L 1856 0 
L 263 0 
L 263 331 
L 781 331 
L 781 2994 
L 231 2994 
L 231 3322 
L 1356 3322 
L 1356 2731 
Q 1516 3063 1762 3238 
Q 2009 3413 2322 3413 
Q 2709 3413 2968 3220 
Q 3228 3028 3316 2675 
z
" transform="scale(0.015625)"/>
        <path id="DejaVuSerif-41" d="M 1281 1691 
L 2994 1691 
L 2138 3909 
L 1281 1691 
z
M -38 0 
L -38 331 
L 372 331 
L 2034 4666 
L 2559 4666 
L 4225 331 
L 4684 331 
L 4684 0 
L 2988 0 
L 2988 331 
L 3506 331 
L 3116 1356 
L 1153 1356 
L 763 331 
L 1275 331 
L 1275 0 
L -38 0 
z
" transform="scale(0.015625)"/>
        <path id="DejaVuSerif-35" d="M 3219 4666 
L 3219 4153 
L 1081 4153 
L 1081 2816 
Q 1244 2928 1461 2984 
Q 1678 3041 1947 3041 
Q 2703 3041 3140 2622 
Q 3578 2203 3578 1478 
Q 3578 738 3136 323 
Q 2694 -91 1894 -91 
Q 1572 -91 1234 -12 
Q 897 66 544 225 
L 544 1131 
L 897 1131 
Q 925 688 1179 453 
Q 1434 219 1894 219 
Q 2388 219 2653 544 
Q 2919 869 2919 1478 
Q 2919 2084 2655 2407 
Q 2391 2731 1894 2731 
Q 1613 2731 1398 2631 
Q 1184 2531 1019 2322 
L 750 2322 
L 750 4666 
L 3219 4666 
z
" transform="scale(0.015625)"/>
        <path id="DejaVuSerif-30" d="M 2034 219 
Q 2513 219 2750 744 
Q 2988 1269 2988 2328 
Q 2988 3391 2750 3916 
Q 2513 4441 2034 4441 
Q 1556 4441 1318 3916 
Q 1081 3391 1081 2328 
Q 1081 1269 1318 744 
Q 1556 219 2034 219 
z
M 2034 -91 
Q 1275 -91 848 546 
Q 422 1184 422 2328 
Q 422 3475 848 4112 
Q 1275 4750 2034 4750 
Q 2797 4750 3222 4112 
Q 3647 3475 3647 2328 
Q 3647 1184 3222 546 
Q 2797 -91 2034 -91 
z
" transform="scale(0.015625)"/>
       </defs>
       <use xlink:href="#DejaVuSerif-6d"/>
       <use xlink:href="#DejaVuSerif-41" transform="translate(94.824219 0)"/>
       <use xlink:href="#DejaVuSerif-50" transform="translate(167.041016 0)"/>
       <use xlink:href="#DejaVuSerif-35" transform="translate(234.326172 0)"/>
       <use xlink:href="#DejaVuSerif-30" transform="translate(297.949219 0)"/>
      </g>
     </g>
    </g>
   </g>
   <g id="matplotlib.axis_2">
    <g id="ytick_1">
     <g id="line2d_4">
      <path d="M 179.050918 170.959256 
C 179.050918 169.076711 178.680098 167.212472 177.959679 165.473227 
C 177.239261 163.733983 176.183254 162.153557 174.852094 160.822397 
C 173.520934 159.491237 171.940508 158.43523 170.201263 157.714811 
C 168.462019 156.994392 166.597779 156.623572 164.715234 156.623572 
C 162.83269 156.623572 160.96845 156.994392 159.229206 157.714811 
C 157.489961 158.43523 155.909535 159.491237 154.578375 160.822397 
C 153.247215 162.153557 152.191208 163.733983 151.470789 165.473227 
C 150.750371 167.212472 150.37955 169.076711 150.37955 170.959256 
C 150.37955 172.841801 150.750371 174.70604 151.470789 176.445285 
C 152.191208 178.18453 153.247215 179.764955 154.578375 181.096116 
C 155.909535 182.427276 157.489961 183.483283 159.229206 184.203701 
C 160.96845 184.92412 162.83269 185.29494 164.715234 185.29494 
C 166.597779 185.29494 168.462019 184.92412 170.201263 184.203701 
C 171.940508 183.483283 173.520934 182.427276 174.852094 181.096116 
C 176.183254 179.764955 177.239261 178.18453 177.959679 176.445285 
C 178.680098 174.70604 179.050918 172.841801 179.050918 170.959256 
" clip-path="url(#paa769365fb)" style="fill: none; stroke: #b0b0b0; stroke-width: 0.8; stroke-linecap: square"/>
     </g>
     <g id="text_4">
      <!-- 0.05 -->
      <g transform="translate(177.959679 162.977602) scale(0.12 -0.12)">
       <defs>
        <path id="DejaVuSerif-2e" d="M 603 325 
Q 603 500 722 622 
Q 841 744 1019 744 
Q 1191 744 1312 622 
Q 1434 500 1434 325 
Q 1434 153 1312 31 
Q 1191 -91 1019 -91 
Q 841 -91 722 29 
Q 603 150 603 325 
z
" transform="scale(0.015625)"/>
       </defs>
       <use xlink:href="#DejaVuSerif-30"/>
       <use xlink:href="#DejaVuSerif-2e" transform="translate(63.623047 0)"/>
       <use xlink:href="#DejaVuSerif-30" transform="translate(95.410156 0)"/>
       <use xlink:href="#DejaVuSerif-35" transform="translate(159.033203 0)"/>
      </g>
     </g>
    </g>
    <g id="ytick_2">
     <g id="line2d_5">
      <path d="M 193.386602 170.959256 
C 193.386602 167.194167 192.644962 163.465688 191.204125 159.987199 
C 189.763287 156.508709 187.651274 153.347858 184.988953 150.685537 
C 182.326633 148.023217 179.165781 145.911203 175.687292 144.470366 
C 172.208803 143.029529 168.480324 142.287888 164.715234 142.287888 
C 160.950145 142.287888 157.221666 143.029529 153.743177 144.470366 
C 150.264688 145.911203 147.103836 148.023217 144.441516 150.685537 
C 141.779195 153.347858 139.667182 156.508709 138.226344 159.987199 
C 136.785507 163.465688 136.043866 167.194167 136.043866 170.959256 
C 136.043866 174.724346 136.785507 178.452825 138.226344 181.931314 
C 139.667182 185.409803 141.779195 188.570655 144.441516 191.232975 
C 147.103836 193.895295 150.264688 196.007309 153.743177 197.448146 
C 157.221666 198.888984 160.950145 199.630624 164.715234 199.630624 
C 168.480324 199.630624 172.208803 198.888984 175.687292 197.448146 
C 179.165781 196.007309 182.326633 193.895295 184.988953 191.232975 
C 187.651274 188.570655 189.763287 185.409803 191.204125 181.931314 
C 192.644962 178.452825 193.386602 174.724346 193.386602 170.959256 
" clip-path="url(#paa769365fb)" style="fill: none; stroke: #b0b0b0; stroke-width: 0.8; stroke-linecap: square"/>
     </g>
     <g id="text_5">
      <!-- 0.10 -->
      <g transform="translate(191.204125 157.491574) scale(0.12 -0.12)">
       <defs>
        <path id="DejaVuSerif-31" d="M 909 0 
L 909 331 
L 1722 331 
L 1722 4213 
L 781 3603 
L 781 4013 
L 1919 4750 
L 2350 4750 
L 2350 331 
L 3163 331 
L 3163 0 
L 909 0 
z
" transform="scale(0.015625)"/>
       </defs>
       <use xlink:href="#DejaVuSerif-30"/>
       <use xlink:href="#DejaVuSerif-2e" transform="translate(63.623047 0)"/>
       <use xlink:href="#DejaVuSerif-31" transform="translate(95.410156 0)"/>
       <use xlink:href="#DejaVuSerif-30" transform="translate(159.033203 0)"/>
      </g>
     </g>
    </g>
    <g id="ytick_3">
     <g id="line2d_6">
      <path d="M 207.722287 170.959256 
C 207.722287 165.311622 206.609826 159.718904 204.44857 154.50117 
C 202.287314 149.283436 199.119293 144.542159 195.125813 140.548678 
C 191.132332 136.555197 186.391055 133.387177 181.173321 131.225921 
C 175.955587 129.064665 170.362869 127.952204 164.715234 127.952204 
C 159.0676 127.952204 153.474882 129.064665 148.257148 131.225921 
C 143.039414 133.387177 138.298137 136.555197 134.304656 140.548678 
C 130.311176 144.542159 127.143155 149.283436 124.981899 154.50117 
C 122.820643 159.718904 121.708182 165.311622 121.708182 170.959256 
C 121.708182 176.606891 122.820643 182.199609 124.981899 187.417343 
C 127.143155 192.635076 130.311176 197.376354 134.304656 201.369834 
C 138.298137 205.363315 143.039414 208.531335 148.257148 210.692592 
C 153.474882 212.853848 159.0676 213.966308 164.715234 213.966308 
C 170.362869 213.966308 175.955587 212.853848 181.173321 210.692592 
C 186.391055 208.531335 191.132332 205.363315 195.125813 201.369834 
C 199.119293 197.376354 202.287314 192.635076 204.44857 187.417343 
C 206.609826 182.199609 207.722287 176.606891 207.722287 170.959256 
" clip-path="url(#paa769365fb)" style="fill: none; stroke: #b0b0b0; stroke-width: 0.8; stroke-linecap: square"/>
     </g>
     <g id="text_6">
      <!-- 0.15 -->
      <g transform="translate(204.44857 152.005545) scale(0.12 -0.12)">
       <use xlink:href="#DejaVuSerif-30"/>
       <use xlink:href="#DejaVuSerif-2e" transform="translate(63.623047 0)"/>
       <use xlink:href="#DejaVuSerif-31" transform="translate(95.410156 0)"/>
       <use xlink:href="#DejaVuSerif-35" transform="translate(159.033203 0)"/>
      </g>
     </g>
    </g>
    <g id="ytick_4">
     <g id="line2d_7">
      <path d="M 222.057971 170.959256 
C 222.057971 163.429077 220.57469 155.972119 217.693015 149.015141 
C 214.81134 142.058163 210.587313 135.736459 205.262672 130.411819 
C 199.938031 125.087178 193.616328 120.863151 186.65935 117.981476 
C 179.702371 115.099801 172.245414 113.61652 164.715234 113.61652 
C 157.185055 113.61652 149.728098 115.099801 142.771119 117.981476 
C 135.814141 120.863151 129.492437 125.087178 124.167797 130.411819 
C 118.843156 135.736459 114.619129 142.058163 111.737454 149.015141 
C 108.855779 155.972119 107.372498 163.429077 107.372498 170.959256 
C 107.372498 178.489435 108.855779 185.946393 111.737454 192.903371 
C 114.619129 199.86035 118.843156 206.182053 124.167797 211.506694 
C 129.492437 216.831335 135.814141 221.055362 142.771119 223.937037 
C 149.728098 226.818711 157.185055 228.301992 164.715234 228.301992 
C 172.245414 228.301992 179.702371 226.818711 186.65935 223.937037 
C 193.616328 221.055362 199.938031 216.831335 205.262672 211.506694 
C 210.587313 206.182053 214.81134 199.86035 217.693015 192.903371 
C 220.57469 185.946393 222.057971 178.489435 222.057971 170.959256 
" clip-path="url(#paa769365fb)" style="fill: none; stroke: #b0b0b0; stroke-width: 0.8; stroke-linecap: square"/>
     </g>
     <g id="text_7">
      <!-- 0.20 -->
      <g transform="translate(217.693015 146.519516) scale(0.12 -0.12)">
       <defs>
        <path id="DejaVuSerif-32" d="M 819 3553 
L 469 3553 
L 469 4384 
Q 803 4563 1142 4656 
Q 1481 4750 1806 4750 
Q 2534 4750 2956 4397 
Q 3378 4044 3378 3438 
Q 3378 2753 2422 1800 
Q 2347 1728 2309 1691 
L 1131 513 
L 3078 513 
L 3078 1088 
L 3444 1088 
L 3444 0 
L 434 0 
L 434 341 
L 1850 1753 
Q 2319 2222 2519 2614 
Q 2719 3006 2719 3438 
Q 2719 3909 2473 4175 
Q 2228 4441 1797 4441 
Q 1350 4441 1106 4219 
Q 863 3997 819 3553 
z
" transform="scale(0.015625)"/>
       </defs>
       <use xlink:href="#DejaVuSerif-30"/>
       <use xlink:href="#DejaVuSerif-2e" transform="translate(63.623047 0)"/>
       <use xlink:href="#DejaVuSerif-32" transform="translate(95.410156 0)"/>
       <use xlink:href="#DejaVuSerif-30" transform="translate(159.033203 0)"/>
      </g>
     </g>
    </g>
    <g id="ytick_5">
     <g id="line2d_8">
      <path d="M 236.393655 170.959256 
C 236.393655 161.546532 234.539553 152.225335 230.93746 143.529112 
C 227.335366 134.832889 222.055332 126.93076 215.399531 120.274959 
C 208.743731 113.619158 200.841601 108.339124 192.145378 104.737031 
C 183.449155 101.134937 174.127958 99.280836 164.715234 99.280836 
C 155.30251 99.280836 145.981313 101.134937 137.28509 104.737031 
C 128.588867 108.339124 120.686738 113.619158 114.030937 120.274959 
C 107.375136 126.93076 102.095102 134.832889 98.493009 143.529112 
C 94.890915 152.225335 93.036814 161.546532 93.036814 170.959256 
C 93.036814 180.37198 94.890915 189.693177 98.493009 198.3894 
C 102.095102 207.085623 107.375136 214.987752 114.030937 221.643553 
C 120.686738 228.299354 128.588867 233.579388 137.28509 237.181482 
C 145.981313 240.783575 155.30251 242.637677 164.715234 242.637677 
C 174.127958 242.637677 183.449155 240.783575 192.145378 237.181482 
C 200.841601 233.579388 208.743731 228.299354 215.399531 221.643553 
C 222.055332 214.987752 227.335366 207.085623 230.93746 198.3894 
C 234.539553 189.693177 236.393655 180.37198 236.393655 170.959256 
" clip-path="url(#paa769365fb)" style="fill: none; stroke: #b0b0b0; stroke-width: 0.8; stroke-linecap: square"/>
     </g>
     <g id="text_8">
      <!-- 0.25 -->
      <g transform="translate(230.93746 141.033487) scale(0.12 -0.12)">
       <use xlink:href="#DejaVuSerif-30"/>
       <use xlink:href="#DejaVuSerif-2e" transform="translate(63.623047 0)"/>
       <use xlink:href="#DejaVuSerif-32" transform="translate(95.410156 0)"/>
       <use xlink:href="#DejaVuSerif-35" transform="translate(159.033203 0)"/>
      </g>
     </g>
    </g>
    <g id="ytick_6">
     <g id="line2d_9">
      <path d="M 250.729339 170.959256 
C 250.729339 159.663988 248.504417 148.478551 244.181905 138.043084 
C 239.859393 127.607616 233.523352 118.125061 225.536391 110.1381 
C 217.54943 102.151139 208.066875 95.815098 197.631407 91.492586 
C 187.19594 87.170074 176.010503 84.945152 164.715234 84.945152 
C 153.419966 84.945152 142.234529 87.170074 131.799062 91.492586 
C 121.363594 95.815098 111.881039 102.151139 103.894078 110.1381 
C 95.907117 118.125061 89.571076 127.607616 85.248564 138.043084 
C 80.926052 148.478551 78.70113 159.663988 78.70113 170.959256 
C 78.70113 182.254525 80.926052 193.439961 85.248564 203.875429 
C 89.571076 214.310897 95.907117 223.793452 103.894078 231.780413 
C 111.881039 239.767374 121.363594 246.103415 131.799062 250.425927 
C 142.234529 254.748439 153.419966 256.973361 164.715234 256.973361 
C 176.010503 256.973361 187.19594 254.748439 197.631407 250.425927 
C 208.066875 246.103415 217.54943 239.767374 225.536391 231.780413 
C 233.523352 223.793452 239.859393 214.310897 244.181905 203.875429 
C 248.504417 193.439961 250.729339 182.254525 250.729339 170.959256 
" clip-path="url(#paa769365fb)" style="fill: none; stroke: #b0b0b0; stroke-width: 0.8; stroke-linecap: square"/>
     </g>
     <g id="text_9">
      <!-- 0.30 -->
      <g transform="translate(244.181905 135.547459) scale(0.12 -0.12)">
       <defs>
        <path id="DejaVuSerif-33" d="M 622 4469 
Q 988 4606 1323 4678 
Q 1659 4750 1953 4750 
Q 2638 4750 3022 4454 
Q 3406 4159 3406 3634 
Q 3406 3213 3140 2930 
Q 2875 2647 2388 2547 
Q 2963 2466 3280 2130 
Q 3597 1794 3597 1259 
Q 3597 606 3158 257 
Q 2719 -91 1894 -91 
Q 1528 -91 1179 -12 
Q 831 66 488 225 
L 488 1131 
L 838 1131 
Q 869 681 1141 450 
Q 1413 219 1906 219 
Q 2384 219 2661 495 
Q 2938 772 2938 1253 
Q 2938 1803 2653 2086 
Q 2369 2369 1819 2369 
L 1522 2369 
L 1522 2688 
L 1678 2688 
Q 2225 2688 2498 2914 
Q 2772 3141 2772 3597 
Q 2772 4006 2547 4223 
Q 2322 4441 1900 4441 
Q 1478 4441 1245 4241 
Q 1013 4041 972 3647 
L 622 3647 
L 622 4469 
z
" transform="scale(0.015625)"/>
       </defs>
       <use xlink:href="#DejaVuSerif-30"/>
       <use xlink:href="#DejaVuSerif-2e" transform="translate(63.623047 0)"/>
       <use xlink:href="#DejaVuSerif-33" transform="translate(95.410156 0)"/>
       <use xlink:href="#DejaVuSerif-30" transform="translate(159.033203 0)"/>
      </g>
     </g>
    </g>
    <g id="ytick_7">
     <g id="line2d_10">
      <path d="M 265.065023 170.959256 
C 265.065023 157.781443 262.469281 144.731767 257.42635 132.557055 
C 252.383419 120.382343 244.991372 109.319362 235.67325 100.00124 
C 226.355129 90.683119 215.292148 83.291072 203.117436 78.248141 
C 190.942724 73.20521 177.893048 70.609468 164.715234 70.609468 
C 151.537421 70.609468 138.487745 73.20521 126.313033 78.248141 
C 114.138321 83.291072 103.07534 90.683119 93.757218 100.00124 
C 84.439097 109.319362 77.04705 120.382343 72.004119 132.557055 
C 66.961188 144.731767 64.365446 157.781443 64.365446 170.959256 
C 64.365446 184.13707 66.961188 197.186746 72.004119 209.361458 
C 77.04705 221.53617 84.439097 232.599151 93.757218 241.917272 
C 103.07534 251.235393 114.138321 258.627441 126.313033 263.670372 
C 138.487745 268.713303 151.537421 271.309045 164.715234 271.309045 
C 177.893048 271.309045 190.942724 268.713303 203.117436 263.670372 
C 215.292148 258.627441 226.355129 251.235393 235.67325 241.917272 
C 244.991372 232.599151 252.383419 221.53617 257.42635 209.361458 
C 262.469281 197.186746 265.065023 184.13707 265.065023 170.959256 
" clip-path="url(#paa769365fb)" style="fill: none; stroke: #b0b0b0; stroke-width: 0.8; stroke-linecap: square"/>
     </g>
     <g id="text_10">
      <!-- 0.35 -->
      <g transform="translate(257.42635 130.06143) scale(0.12 -0.12)">
       <use xlink:href="#DejaVuSerif-30"/>
       <use xlink:href="#DejaVuSerif-2e" transform="translate(63.623047 0)"/>
       <use xlink:href="#DejaVuSerif-33" transform="translate(95.410156 0)"/>
       <use xlink:href="#DejaVuSerif-35" transform="translate(159.033203 0)"/>
      </g>
     </g>
    </g>
    <g id="ytick_8">
     <g id="line2d_11">
      <path d="M 279.400707 170.959256 
C 279.400707 155.898898 276.434145 140.984983 270.670795 127.071026 
C 264.907445 113.157069 256.459391 100.513662 245.81011 89.864381 
C 235.160828 79.215099 222.517421 70.767045 208.603465 65.003696 
C 194.689508 59.240346 179.775593 56.273784 164.715234 56.273784 
C 149.654876 56.273784 134.740961 59.240346 120.827004 65.003696 
C 106.913047 70.767045 94.269641 79.215099 83.620359 89.864381 
C 72.971078 100.513662 64.523023 113.157069 58.759674 127.071026 
C 52.996324 140.984983 50.029762 155.898898 50.029762 170.959256 
C 50.029762 186.019615 52.996324 200.93353 58.759674 214.847487 
C 64.523023 228.761443 72.971078 241.40485 83.620359 252.054132 
C 94.269641 262.703413 106.913047 271.151467 120.827004 276.914817 
C 134.740961 282.678167 149.654876 285.644729 164.715234 285.644729 
C 179.775593 285.644729 194.689508 282.678167 208.603465 276.914817 
C 222.517421 271.151467 235.160828 262.703413 245.81011 252.054132 
C 256.459391 241.40485 264.907445 228.761443 270.670795 214.847487 
C 276.434145 200.93353 279.400707 186.019615 279.400707 170.959256 
" clip-path="url(#paa769365fb)" style="fill: none; stroke: #b0b0b0; stroke-width: 0.8; stroke-linecap: square"/>
     </g>
     <g id="text_11">
      <!-- 0.40 -->
      <g transform="translate(270.670795 124.575401) scale(0.12 -0.12)">
       <defs>
        <path id="DejaVuSerif-34" d="M 2234 1581 
L 2234 4063 
L 641 1581 
L 2234 1581 
z
M 3609 0 
L 1484 0 
L 1484 331 
L 2234 331 
L 2234 1247 
L 197 1247 
L 197 1588 
L 2241 4750 
L 2859 4750 
L 2859 1581 
L 3750 1581 
L 3750 1247 
L 2859 1247 
L 2859 331 
L 3609 331 
L 3609 0 
z
" transform="scale(0.015625)"/>
       </defs>
       <use xlink:href="#DejaVuSerif-30"/>
       <use xlink:href="#DejaVuSerif-2e" transform="translate(63.623047 0)"/>
       <use xlink:href="#DejaVuSerif-34" transform="translate(95.410156 0)"/>
       <use xlink:href="#DejaVuSerif-30" transform="translate(159.033203 0)"/>
      </g>
     </g>
    </g>
   </g>
   <g id="line2d_12">
    <path d="M 283.414698 170.959256 
L 138.050862 124.775209 
L 138.050862 217.143304 
L 283.414698 170.959256 
" clip-path="url(#paa769365fb)" style="fill: none; stroke: #1f77b4; stroke-width: 2; stroke-linecap: square"/>
   </g>
   <g id="patch_4">
    <path d="M 286.683234 170.959256 
C 286.683234 154.942565 283.528295 139.081616 277.398973 124.284123 
C 271.269651 109.48663 262.285145 96.040367 250.959634 84.714856 
C 239.634123 73.389346 226.18786 64.40484 211.390367 58.275517 
C 196.592874 52.146195 180.731925 48.991256 164.715234 48.991256 
C 148.698543 48.991256 132.837594 52.146195 118.040101 58.275517 
C 103.242608 64.40484 89.796345 73.389346 78.470834 84.714856 
C 67.145324 96.040367 58.160818 109.48663 52.031496 124.284123 
C 45.902173 139.081616 42.747234 154.942565 42.747234 170.959256 
C 42.747234 186.975947 45.902173 202.836896 52.031496 217.634389 
C 58.160818 232.431882 67.145324 245.878145 78.470834 257.203656 
C 89.796345 268.529167 103.242608 277.513673 118.040101 283.642995 
C 132.837594 289.772317 148.698543 292.927256 164.715234 292.927256 
C 180.731925 292.927256 196.592874 289.772317 211.390367 283.642995 
C 226.18786 277.513673 239.634123 268.529167 250.959634 257.203656 
C 262.285145 245.878145 271.269651 232.431882 277.398973 217.634389 
C 283.528295 202.836896 286.683234 186.975947 286.683234 170.959256 
" style="fill: none; stroke: #000000; stroke-linejoin: miter; stroke-linecap: square"/>
   </g>
   <g id="text_12">
    <!-- Balance de Métricas: Bovinos v16 (Nano) -->
    <g transform="translate(7.2 18.597656) scale(0.15 -0.15)">
     <defs>
      <path id="DejaVuSerif-42" d="M 1581 331 
L 2516 331 
Q 3078 331 3337 575 
Q 3597 819 3597 1350 
Q 3597 1878 3339 2120 
Q 3081 2363 2516 2363 
L 1581 2363 
L 1581 331 
z
M 1581 2694 
L 2375 2694 
Q 2888 2694 3123 2891 
Q 3359 3088 3359 3513 
Q 3359 3941 3123 4136 
Q 2888 4331 2375 4331 
L 1581 4331 
L 1581 2694 
z
M 353 0 
L 353 331 
L 947 331 
L 947 4331 
L 353 4331 
L 353 4666 
L 2656 4666 
Q 3363 4666 3720 4377 
Q 4078 4088 4078 3513 
Q 4078 3097 3829 2850 
Q 3581 2603 3103 2547 
Q 3697 2472 4005 2167 
Q 4313 1863 4313 1350 
Q 4313 656 3875 328 
Q 3438 0 2509 0 
L 353 0 
z
" transform="scale(0.015625)"/>
      <path id="DejaVuSerif-20" transform="scale(0.015625)"/>
      <path id="DejaVuSerif-64" d="M 3359 331 
L 3909 331 
L 3909 0 
L 2784 0 
L 2784 519 
Q 2616 206 2355 57 
Q 2094 -91 1709 -91 
Q 1097 -91 708 395 
Q 319 881 319 1663 
Q 319 2444 706 2928 
Q 1094 3413 1709 3413 
Q 2094 3413 2355 3264 
Q 2616 3116 2784 2803 
L 2784 4531 
L 2241 4531 
L 2241 4863 
L 3359 4863 
L 3359 331 
z
M 2784 1497 
L 2784 1825 
Q 2784 2422 2554 2737 
Q 2325 3053 1888 3053 
Q 1444 3053 1217 2703 
Q 991 2353 991 1663 
Q 991 975 1217 622 
Q 1444 269 1888 269 
Q 2325 269 2554 583 
Q 2784 897 2784 1497 
z
" transform="scale(0.015625)"/>
      <path id="DejaVuSerif-4d" d="M 353 0 
L 353 331 
L 947 331 
L 947 4331 
L 319 4331 
L 319 4666 
L 1678 4666 
L 3316 1344 
L 4953 4666 
L 6228 4666 
L 6228 4331 
L 5606 4331 
L 5606 331 
L 6203 331 
L 6203 0 
L 4378 0 
L 4378 331 
L 4972 331 
L 4972 3938 
L 3372 684 
L 2931 684 
L 1331 3938 
L 1331 331 
L 1925 331 
L 1925 0 
L 353 0 
z
" transform="scale(0.015625)"/>
      <path id="DejaVuSerif-e9" d="M 3469 1600 
L 991 1600 
L 991 1575 
Q 991 903 1244 561 
Q 1497 219 1991 219 
Q 2369 219 2611 417 
Q 2853 616 2950 1006 
L 3413 1006 
Q 3275 459 2904 184 
Q 2534 -91 1931 -91 
Q 1203 -91 761 389 
Q 319 869 319 1663 
Q 319 2450 753 2931 
Q 1188 3413 1894 3413 
Q 2647 3413 3050 2948 
Q 3453 2484 3469 1600 
z
M 2791 1931 
Q 2772 2513 2545 2808 
Q 2319 3103 1894 3103 
Q 1497 3103 1269 2806 
Q 1041 2509 991 1931 
L 2791 1931 
z
M 2330 5119 
L 2952 5119 
L 1890 3944 
L 1524 3944 
L 2330 5119 
z
" transform="scale(0.015625)"/>
      <path id="DejaVuSerif-74" d="M 691 2988 
L 184 2988 
L 184 3322 
L 691 3322 
L 691 4353 
L 1269 4353 
L 1269 3322 
L 2350 3322 
L 2350 2988 
L 1269 2988 
L 1269 878 
Q 1269 456 1350 337 
Q 1431 219 1650 219 
Q 1875 219 1978 351 
Q 2081 484 2088 781 
L 2522 781 
Q 2497 328 2275 118 
Q 2053 -91 1600 -91 
Q 1103 -91 897 129 
Q 691 350 691 878 
L 691 2988 
z
" transform="scale(0.015625)"/>
      <path id="DejaVuSerif-3a" d="M 666 325 
Q 666 500 786 622 
Q 906 744 1081 744 
Q 1256 744 1376 622 
Q 1497 500 1497 325 
Q 1497 150 1378 29 
Q 1259 -91 1081 -91 
Q 903 -91 784 29 
Q 666 150 666 325 
z
M 666 2363 
Q 666 2538 786 2658 
Q 906 2778 1081 2778 
Q 1259 2778 1378 2659 
Q 1497 2541 1497 2363 
Q 1497 2184 1378 2065 
Q 1259 1947 1081 1947 
Q 906 1947 786 2067 
Q 666 2188 666 2363 
z
" transform="scale(0.015625)"/>
      <path id="DejaVuSerif-6f" d="M 1925 219 
Q 2388 219 2623 584 
Q 2859 950 2859 1663 
Q 2859 2375 2623 2739 
Q 2388 3103 1925 3103 
Q 1463 3103 1227 2739 
Q 991 2375 991 1663 
Q 991 950 1228 584 
Q 1466 219 1925 219 
z
M 1925 -91 
Q 1200 -91 759 389 
Q 319 869 319 1663 
Q 319 2456 758 2934 
Q 1197 3413 1925 3413 
Q 2653 3413 3092 2934 
Q 3531 2456 3531 1663 
Q 3531 869 3092 389 
Q 2653 -91 1925 -91 
z
" transform="scale(0.015625)"/>
      <path id="DejaVuSerif-76" d="M 1581 0 
L 359 2988 
L -19 2988 
L -19 3322 
L 1509 3322 
L 1509 2988 
L 978 2988 
L 1913 703 
L 2847 2988 
L 2350 2988 
L 2350 3322 
L 3597 3322 
L 3597 2988 
L 3225 2988 
L 2003 0 
L 1581 0 
z
" transform="scale(0.015625)"/>
      <path id="DejaVuSerif-36" d="M 2094 219 
Q 2534 219 2771 542 
Q 3009 866 3009 1472 
Q 3009 2078 2771 2401 
Q 2534 2725 2094 2725 
Q 1647 2725 1412 2412 
Q 1178 2100 1178 1509 
Q 1178 888 1415 553 
Q 1653 219 2094 219 
z
M 1075 2569 
Q 1288 2803 1556 2918 
Q 1825 3034 2163 3034 
Q 2859 3034 3264 2615 
Q 3669 2197 3669 1472 
Q 3669 763 3233 336 
Q 2797 -91 2069 -91 
Q 1278 -91 853 498 
Q 428 1088 428 2181 
Q 428 3406 931 4078 
Q 1434 4750 2350 4750 
Q 2597 4750 2869 4703 
Q 3141 4656 3425 4563 
L 3425 3794 
L 3072 3794 
Q 3034 4109 2831 4275 
Q 2628 4441 2284 4441 
Q 1678 4441 1381 3981 
Q 1084 3522 1075 2569 
z
" transform="scale(0.015625)"/>
      <path id="DejaVuSerif-28" d="M 2041 -997 
Q 1281 -656 893 83 
Q 506 822 506 1931 
Q 506 3044 893 3783 
Q 1281 4522 2041 4863 
L 2041 4556 
Q 1559 4225 1350 3623 
Q 1141 3022 1141 1931 
Q 1141 844 1350 242 
Q 1559 -359 2041 -691 
L 2041 -997 
z
" transform="scale(0.015625)"/>
      <path id="DejaVuSerif-4e" d="M 313 0 
L 313 331 
L 941 331 
L 941 4331 
L 313 4331 
L 313 4666 
L 1509 4666 
L 4306 984 
L 4306 4331 
L 3681 4331 
L 3681 4666 
L 5319 4666 
L 5319 4331 
L 4691 4331 
L 4691 -91 
L 4313 -91 
L 1325 3841 
L 1325 331 
L 1953 331 
L 1953 0 
L 313 0 
z
" transform="scale(0.015625)"/>
      <path id="DejaVuSerif-29" d="M 453 -997 
L 453 -691 
Q 934 -359 1145 242 
Q 1356 844 1356 1931 
Q 1356 3022 1145 3623 
Q 934 4225 453 4556 
L 453 4863 
Q 1216 4522 1603 3783 
Q 1991 3044 1991 1931 
Q 1991 822 1603 83 
Q 1216 -656 453 -997 
z
" transform="scale(0.015625)"/>
     </defs>
     <use xlink:href="#DejaVuSerif-42"/>
     <use xlink:href="#DejaVuSerif-61" transform="translate(73.486328 0)"/>
     <use xlink:href="#DejaVuSerif-6c" transform="translate(133.105469 0)"/>
     <use xlink:href="#DejaVuSerif-61" transform="translate(165.087891 0)"/>
     <use xlink:href="#DejaVuSerif-6e" transform="translate(224.707031 0)"/>
     <use xlink:href="#DejaVuSerif-63" transform="translate(289.111328 0)"/>
     <use xlink:href="#DejaVuSerif-65" transform="translate(345.117188 0)"/>
     <use xlink:href="#DejaVuSerif-20" transform="translate(404.296875 0)"/>
     <use xlink:href="#DejaVuSerif-64" transform="translate(436.083984 0)"/>
     <use xlink:href="#DejaVuSerif-65" transform="translate(500.097656 0)"/>
     <use xlink:href="#DejaVuSerif-20" transform="translate(559.277344 0)"/>
     <use xlink:href="#DejaVuSerif-4d" transform="translate(591.064453 0)"/>
     <use xlink:href="#DejaVuSerif-e9" transform="translate(693.457031 0)"/>
     <use xlink:href="#DejaVuSerif-74" transform="translate(752.636719 0)"/>
     <use xlink:href="#DejaVuSerif-72" transform="translate(792.822266 0)"/>
     <use xlink:href="#DejaVuSerif-69" transform="translate(840.625 0)"/>
     <use xlink:href="#DejaVuSerif-63" transform="translate(872.607422 0)"/>
     <use xlink:href="#DejaVuSerif-61" transform="translate(928.613281 0)"/>
     <use xlink:href="#DejaVuSerif-73" transform="translate(988.232422 0)"/>
     <use xlink:href="#DejaVuSerif-3a" transform="translate(1039.550781 0)"/>
     <use xlink:href="#DejaVuSerif-20" transform="translate(1073.242188 0)"/>
     <use xlink:href="#DejaVuSerif-42" transform="translate(1105.029297 0)"/>
     <use xlink:href="#DejaVuSerif-6f" transform="translate(1178.515625 0)"/>
     <use xlink:href="#DejaVuSerif-76" transform="translate(1238.720703 0)"/>
     <use xlink:href="#DejaVuSerif-69" transform="translate(1295.214844 0)"/>
     <use xlink:href="#DejaVuSerif-6e" transform="translate(1327.197266 0)"/>
     <use xlink:href="#DejaVuSerif-6f" transform="translate(1391.601562 0)"/>
     <use xlink:href="#DejaVuSerif-73" transform="translate(1451.806641 0)"/>
     <use xlink:href="#DejaVuSerif-20" transform="translate(1503.125 0)"/>
     <use xlink:href="#DejaVuSerif-76" transform="translate(1534.912109 0)"/>
     <use xlink:href="#DejaVuSerif-31" transform="translate(1591.40625 0)"/>
     <use xlink:href="#DejaVuSerif-36" transform="translate(1655.029297 0)"/>
     <use xlink:href="#DejaVuSerif-20" transform="translate(1718.652344 0)"/>
     <use xlink:href="#DejaVuSerif-28" transform="translate(1750.439453 0)"/>
     <use xlink:href="#DejaVuSerif-4e" transform="translate(1789.453125 0)"/>
     <use xlink:href="#DejaVuSerif-61" transform="translate(1876.953125 0)"/>
     <use xlink:href="#DejaVuSerif-6e" transform="translate(1936.572266 0)"/>
     <use xlink:href="#DejaVuSerif-6f" transform="translate(2000.976562 0)"/>
     <use xlink:href="#DejaVuSerif-29" transform="translate(2061.181641 0)"/>
    </g>
   </g>
  </g>
 </g>
 <defs>
  <clipPath id="paa769365fb">
   <path d="M 286.683234 170.959256 
C 286.683234 154.942565 283.528295 139.081616 277.398973 124.284123 
C 271.269651 109.48663 262.285145 96.040367 250.959634 84.714856 
C 239.634123 73.389346 226.18786 64.40484 211.390367 58.275517 
C 196.592874 52.146195 180.731925 48.991256 164.715234 48.991256 
C 148.698543 48.991256 132.837594 52.146195 118.040101 58.275517 
C 103.242608 64.40484 89.796345 73.389346 78.470834 84.714856 
C 67.145324 96.040367 58.160818 109.48663 52.031496 124.284123 
C 45.902173 139.081616 42.747234 154.942565 42.747234 170.959256 
C 42.747234 186.975947 45.902173 202.836896 52.031496 217.634389 
C 58.160818 232.431882 67.145324 245.878145 78.470834 257.203656 
C 89.796345 268.529167 103.242608 277.513673 118.040101 283.642995 
C 132.837594 289.772317 148.698543 292.927256 164.715234 292.927256 
C 180.731925 292.927256 196.592874 289.772317 211.390367 283.642995 
C 226.18786 277.513673 239.634123 268.529167 250.959634 257.203656 
C 262.285145 245.878145 271.269651 232.431882 277.398973 217.634389 
C 283.528295 202.836896 286.683234 186.975947 286.683234 170.959256 
M 164.715234 170.959256 
C 164.715234 170.959256 164.715234 170.959256 164.715234 170.959256 
C 164.715234 170.959256 164.715234 170.959256 164.715234 170.959256 
C 164.715234 170.959256 164.715234 170.959256 164.715234 170.959256 
C 164.715234 170.959256 164.715234 170.959256 164.715234 170.959256 
C 164.715234 170.959256 164.715234 170.959256 164.715234 170.959256 
C 164.715234 170.959256 164.715234 170.959256 164.715234 170.959256 
C 164.715234 170.959256 164.715234 170.959256 164.715234 170.959256 
C 164.715234 170.959256 164.715234 170.959256 164.715234 170.959256 
C 164.715234 170.959256 164.715234 170.959256 164.715234 170.959256 
C 164.715234 170.959256 164.715234 170.959256 164.715234 170.959256 
C 164.715234 170.959256 164.715234 170.959256 164.715234 170.959256 
C 164.715234 170.959256 164.715234 170.959256 164.715234 170.959256 
C 164.715234 170.959256 164.715234 170.959256 164.715234 170.959256 
C 164.715234 170.959256 164.715234 170.959256 164.715234 170.959256 
C 164.715234 170.959256 164.715234 170.959256 164.715234 170.959256 
C 164.715234 170.959256 164.715234 170.959256 164.715234 170.959256 
z
"/>
  </clipPath>
 </defs>
</svg>
